<svg width="262" height="220" viewBox="0 0 262 220" fill="none" xmlns="http://www.w3.org/2000/svg">
<rect width="262" height="220" fill="#CFCFCF"/>
<path d="M60 86V62M60 86H64M60 86H50M60 62C60 57.5817 56.4183 54 52 54H44C39.5817 54 36 57.5817 36 62V78C36 81.7304 38.5533 84.8645 42.0077 85.7499M60 62H66.4182C67.4344 62 68.4126 62.3868 69.154 63.0819L74.7358 68.3148C75.5424 69.071 76 70.1273 76 71.2329V82C76 84.2091 74.2091 86 72 86M72 86C72 88.2091 70.2091 90 68 90C65.7909 90 64 88.2091 64 86M72 86C72 83.7909 70.2091 82 68 82C65.7909 82 64 83.7909 64 86M50 86C50 88.2091 48.2091 90 46 90C43.7909 90 42 88.2091 42 86C42 85.916 42.0026 85.8326 42.0077 85.7499M50 86C50 83.7909 48.2091 82 46 82C43.8748 82 42.1368 83.6573 42.0077 85.7499" stroke="black" stroke-width="2.5"/>
<path d="M52 64H48" stroke="black" stroke-width="2.5" stroke-linecap="round" stroke-linejoin="round"/>
<path d="M52 72H44" stroke="black" stroke-width="2.5" stroke-linecap="round" stroke-linejoin="round"/>
<path d="M41.72 118.88V120.72H35.66V125.1H40.66V126.86H35.66V133H33.38V118.88H41.72ZM46.0311 124.14C46.4044 123.42 46.9378 122.853 47.6311 122.44C48.3244 122.013 49.1244 121.8 50.0311 121.8V124.28H49.3511C48.3511 124.28 47.5444 124.527 46.9311 125.02C46.3311 125.5 46.0311 126.3 46.0311 127.42V133H43.7511V121.98H46.0311V124.14ZM61.9794 126.96C61.9794 127.333 61.9527 127.66 61.8994 127.94H53.4194C53.4594 129.073 53.7727 129.913 54.3594 130.46C54.946 131.007 55.6727 131.28 56.5394 131.28C57.2994 131.28 57.9394 131.087 58.4594 130.7C58.9927 130.313 59.3194 129.8 59.4394 129.16H61.8794C61.7327 129.933 61.426 130.62 60.9594 131.22C60.4927 131.82 59.886 132.293 59.1394 132.64C58.3927 132.973 57.5594 133.14 56.6394 133.14C55.5727 133.14 54.626 132.913 53.7994 132.46C52.986 132.007 52.346 131.353 51.8794 130.5C51.4127 129.647 51.1794 128.64 51.1794 127.48C51.1794 126.333 51.4127 125.333 51.8794 124.48C52.346 123.627 52.986 122.973 53.7994 122.52C54.626 122.067 55.5727 121.84 56.6394 121.84C57.7194 121.84 58.6594 122.067 59.4594 122.52C60.2727 122.96 60.8927 123.573 61.3194 124.36C61.7594 125.133 61.9794 126 61.9794 126.96ZM59.6794 126.9C59.706 126.18 59.5794 125.58 59.2994 125.1C59.0327 124.607 58.6594 124.247 58.1794 124.02C57.7127 123.78 57.1994 123.66 56.6394 123.66C55.746 123.66 54.9994 123.933 54.3994 124.48C53.7994 125.027 53.4727 125.833 53.4194 126.9H59.6794ZM74.4208 126.96C74.4208 127.333 74.3941 127.66 74.3408 127.94H65.8608C65.9008 129.073 66.2141 129.913 66.8008 130.46C67.3874 131.007 68.1141 131.28 68.9808 131.28C69.7408 131.28 70.3808 131.087 70.9008 130.7C71.4341 130.313 71.7608 129.8 71.8808 129.16H74.3208C74.1741 129.933 73.8674 130.62 73.4008 131.22C72.9341 131.82 72.3274 132.293 71.5808 132.64C70.8341 132.973 70.0008 133.14 69.0808 133.14C68.0141 133.14 67.0674 132.913 66.2408 132.46C65.4274 132.007 64.7874 131.353 64.3208 130.5C63.8541 129.647 63.6208 128.64 63.6208 127.48C63.6208 126.333 63.8541 125.333 64.3208 124.48C64.7874 123.627 65.4274 122.973 66.2408 122.52C67.0674 122.067 68.0141 121.84 69.0808 121.84C70.1608 121.84 71.1008 122.067 71.9008 122.52C72.7141 122.96 73.3341 123.573 73.7608 124.36C74.2008 125.133 74.4208 126 74.4208 126.96ZM72.1208 126.9C72.1474 126.18 72.0208 125.58 71.7408 125.1C71.4741 124.607 71.1008 124.247 70.6208 124.02C70.1541 123.78 69.6408 123.66 69.0808 123.66C68.1874 123.66 67.4408 123.933 66.8408 124.48C66.2408 125.027 65.9141 125.833 65.8608 126.9H72.1208ZM90.5897 129.24C90.5897 129.933 90.423 130.58 90.0897 131.18C89.7564 131.767 89.2497 132.24 88.5697 132.6C87.8897 132.96 87.0564 133.14 86.0697 133.14C85.1097 133.14 84.2497 132.973 83.4897 132.64C82.7297 132.293 82.123 131.813 81.6697 131.2C81.2164 130.587 80.9564 129.88 80.8897 129.08H83.3297C83.3964 129.693 83.6564 130.22 84.1097 130.66C84.5764 131.1 85.1964 131.32 85.9697 131.32C86.663 131.32 87.1964 131.133 87.5697 130.76C87.9564 130.387 88.1497 129.907 88.1497 129.32C88.1497 128.813 88.0097 128.4 87.7297 128.08C87.4497 127.747 87.103 127.487 86.6897 127.3C86.2764 127.113 85.7097 126.9 84.9897 126.66C84.1097 126.38 83.3897 126.1 82.8297 125.82C82.283 125.54 81.8164 125.133 81.4297 124.6C81.043 124.067 80.8497 123.367 80.8497 122.5C80.8497 121.74 81.0364 121.073 81.4097 120.5C81.783 119.927 82.3164 119.487 83.0097 119.18C83.703 118.86 84.503 118.7 85.4097 118.7C86.8497 118.7 87.9897 119.047 88.8297 119.74C89.683 120.433 90.1697 121.34 90.2897 122.46H87.8297C87.7364 121.927 87.483 121.473 87.0697 121.1C86.6697 120.713 86.1164 120.52 85.4097 120.52C84.7697 120.52 84.2564 120.687 83.8697 121.02C83.483 121.34 83.2897 121.807 83.2897 122.42C83.2897 122.9 83.423 123.3 83.6897 123.62C83.9564 123.927 84.2897 124.173 84.6897 124.36C85.103 124.533 85.663 124.74 86.3697 124.98C87.263 125.26 87.9897 125.547 88.5497 125.84C89.123 126.12 89.603 126.533 89.9897 127.08C90.3897 127.627 90.5897 128.347 90.5897 129.24ZM99.0322 121.8C100.312 121.8 101.339 122.213 102.112 123.04C102.886 123.867 103.272 125.047 103.272 126.58V133H100.992V126.82C100.992 125.833 100.739 125.073 100.232 124.54C99.7255 123.993 99.0322 123.72 98.1522 123.72C97.2455 123.72 96.5189 124.013 95.9722 124.6C95.4255 125.173 95.1522 126.02 95.1522 127.14V133H92.8722V118.2H95.1522V124.4C95.4455 123.573 95.9389 122.933 96.6322 122.48C97.3255 122.027 98.1255 121.8 99.0322 121.8ZM105.619 118.78C105.619 118.393 105.752 118.073 106.019 117.82C106.285 117.567 106.639 117.44 107.079 117.44C107.519 117.44 107.872 117.567 108.139 117.82C108.419 118.073 108.559 118.393 108.559 118.78C108.559 119.167 108.419 119.48 108.139 119.72C107.872 119.96 107.519 120.08 107.079 120.08C106.639 120.08 106.285 119.96 106.019 119.72C105.752 119.48 105.619 119.167 105.619 118.78ZM108.219 121.98V133H105.939V121.98H108.219ZM117.298 121.84C118.258 121.84 119.111 122.067 119.858 122.52C120.618 122.973 121.211 123.627 121.638 124.48C122.064 125.333 122.278 126.333 122.278 127.48C122.278 128.64 122.064 129.647 121.638 130.5C121.211 131.353 120.618 132.007 119.858 132.46C119.111 132.913 118.258 133.14 117.298 133.14C116.298 133.14 115.444 132.893 114.738 132.4C114.031 131.907 113.538 131.253 113.258 130.44V138.24H110.978V121.98H113.258V124.54C113.538 123.727 114.031 123.073 114.738 122.58C115.444 122.087 116.298 121.84 117.298 121.84ZM116.598 123.84C115.958 123.84 115.384 123.993 114.878 124.3C114.371 124.593 113.971 125.02 113.678 125.58C113.384 126.127 113.238 126.76 113.238 127.48C113.238 128.213 113.384 128.853 113.678 129.4C113.971 129.947 114.371 130.373 114.878 130.68C115.384 130.973 115.958 131.12 116.598 131.12C117.611 131.12 118.424 130.8 119.038 130.16C119.651 129.507 119.958 128.613 119.958 127.48C119.958 126.36 119.651 125.473 119.038 124.82C118.424 124.167 117.611 123.84 116.598 123.84ZM130.794 121.84C131.754 121.84 132.607 122.067 133.354 122.52C134.114 122.973 134.707 123.627 135.134 124.48C135.56 125.333 135.774 126.333 135.774 127.48C135.774 128.64 135.56 129.647 135.134 130.5C134.707 131.353 134.114 132.007 133.354 132.46C132.607 132.913 131.754 133.14 130.794 133.14C129.794 133.14 128.94 132.893 128.234 132.4C127.527 131.907 127.034 131.253 126.754 130.44V138.24H124.474V121.98H126.754V124.54C127.034 123.727 127.527 123.073 128.234 122.58C128.94 122.087 129.794 121.84 130.794 121.84ZM130.094 123.84C129.454 123.84 128.88 123.993 128.374 124.3C127.867 124.593 127.467 125.02 127.174 125.58C126.88 126.127 126.734 126.76 126.734 127.48C126.734 128.213 126.88 128.853 127.174 129.4C127.467 129.947 127.867 130.373 128.374 130.68C128.88 130.973 129.454 131.12 130.094 131.12C131.107 131.12 131.92 130.8 132.534 130.16C133.147 129.507 133.454 128.613 133.454 127.48C133.454 126.36 133.147 125.473 132.534 124.82C131.92 124.167 131.107 123.84 130.094 123.84ZM137.65 118.78C137.65 118.393 137.783 118.073 138.05 117.82C138.317 117.567 138.67 117.44 139.11 117.44C139.55 117.44 139.903 117.567 140.17 117.82C140.45 118.073 140.59 118.393 140.59 118.78C140.59 119.167 140.45 119.48 140.17 119.72C139.903 119.96 139.55 120.08 139.11 120.08C138.67 120.08 138.317 119.96 138.05 119.72C137.783 119.48 137.65 119.167 137.65 118.78ZM140.25 121.98V133H137.97V121.98H140.25ZM149.169 121.8C150.449 121.8 151.476 122.213 152.249 123.04C153.022 123.867 153.409 125.047 153.409 126.58V133H151.129V126.82C151.129 125.833 150.876 125.073 150.369 124.54C149.862 123.993 149.169 123.72 148.289 123.72C147.382 123.72 146.656 124.013 146.109 124.6C145.562 125.173 145.289 126.02 145.289 127.14V133H143.009V121.98H145.289V124.4C145.582 123.573 146.076 122.933 146.769 122.48C147.462 122.027 148.262 121.8 149.169 121.8ZM160.495 121.84C161.495 121.84 162.349 122.087 163.055 122.58C163.762 123.073 164.262 123.727 164.555 124.54V121.98H166.835V133.12C166.835 134.147 166.622 135.053 166.195 135.84C165.782 136.64 165.182 137.267 164.395 137.72C163.609 138.173 162.675 138.4 161.595 138.4C160.049 138.4 158.795 138.033 157.835 137.3C156.889 136.567 156.295 135.573 156.055 134.32H158.315C158.502 134.973 158.862 135.48 159.395 135.84C159.929 136.213 160.609 136.4 161.435 136.4C162.342 136.4 163.089 136.12 163.675 135.56C164.262 135 164.555 134.187 164.555 133.12V130.44C164.262 131.253 163.762 131.907 163.055 132.4C162.349 132.893 161.495 133.14 160.495 133.14C159.535 133.14 158.675 132.913 157.915 132.46C157.169 132.007 156.582 131.353 156.155 130.5C155.729 129.647 155.515 128.64 155.515 127.48C155.515 126.333 155.729 125.333 156.155 124.48C156.582 123.627 157.169 122.973 157.915 122.52C158.675 122.067 159.535 121.84 160.495 121.84ZM161.195 123.84C160.182 123.84 159.369 124.167 158.755 124.82C158.155 125.46 157.855 126.347 157.855 127.48C157.855 128.613 158.155 129.507 158.755 130.16C159.369 130.8 160.182 131.12 161.195 131.12C161.835 131.12 162.409 130.973 162.915 130.68C163.422 130.373 163.822 129.947 164.115 129.4C164.409 128.853 164.555 128.213 164.555 127.48C164.555 126.76 164.409 126.127 164.115 125.58C163.822 125.02 163.422 124.593 162.915 124.3C162.409 123.993 161.835 123.84 161.195 123.84Z" fill="black"/>
<path d="M37.544 155.004C38.4587 155.004 39.28 155.219 40.008 155.648C40.7453 156.077 41.324 156.679 41.744 157.454C42.164 158.219 42.374 159.087 42.374 160.058C42.374 161.029 42.164 161.901 41.744 162.676C41.324 163.441 40.7453 164.039 40.008 164.468C39.28 164.897 38.4587 165.112 37.544 165.112C36.6293 165.112 35.7987 164.897 35.052 164.468C34.3147 164.039 33.736 163.441 33.316 162.676C32.896 161.901 32.686 161.029 32.686 160.058C32.686 159.087 32.896 158.219 33.316 157.454C33.736 156.679 34.3147 156.077 35.052 155.648C35.7987 155.219 36.6293 155.004 37.544 155.004ZM37.544 156.194C36.8627 156.194 36.2513 156.353 35.71 156.67C35.178 156.978 34.758 157.426 34.45 158.014C34.1513 158.593 34.002 159.274 34.002 160.058C34.002 160.833 34.1513 161.514 34.45 162.102C34.758 162.69 35.178 163.143 35.71 163.46C36.2513 163.768 36.8627 163.922 37.544 163.922C38.216 163.922 38.818 163.763 39.35 163.446C39.8913 163.129 40.3113 162.681 40.61 162.102C40.918 161.514 41.072 160.833 41.072 160.058C41.072 159.274 40.918 158.593 40.61 158.014C40.3113 157.426 39.8913 156.978 39.35 156.67C38.818 156.353 38.216 156.194 37.544 156.194ZM45.3702 158.868C45.6222 158.336 45.9909 157.925 46.4762 157.636C46.9616 157.337 47.5402 157.188 48.2122 157.188V158.574H47.8202C47.1016 158.574 46.5136 158.761 46.0562 159.134C45.5989 159.498 45.3702 160.105 45.3702 160.954V165H44.0962V157.314H45.3702V158.868ZM52.6193 157.216C53.3659 157.216 53.9959 157.403 54.5093 157.776C55.0319 158.149 55.3959 158.649 55.6013 159.274V154.64H56.8753V165H55.6013V163.04C55.3959 163.665 55.0319 164.165 54.5093 164.538C53.9959 164.911 53.3659 165.098 52.6193 165.098C51.9379 165.098 51.3313 164.939 50.7993 164.622C50.2673 164.305 49.8473 163.852 49.5393 163.264C49.2406 162.667 49.0913 161.967 49.0913 161.164C49.0913 160.361 49.2406 159.661 49.5393 159.064C49.8473 158.467 50.2673 158.009 50.7993 157.692C51.3313 157.375 51.9379 157.216 52.6193 157.216ZM52.9833 158.35C52.1993 158.35 51.5693 158.602 51.0933 159.106C50.6266 159.601 50.3933 160.287 50.3933 161.164C50.3933 162.041 50.6266 162.732 51.0933 163.236C51.5693 163.731 52.1993 163.978 52.9833 163.978C53.4873 163.978 53.9353 163.861 54.3273 163.628C54.7286 163.395 55.0413 163.068 55.2653 162.648C55.4893 162.219 55.6013 161.724 55.6013 161.164C55.6013 160.604 55.4893 160.109 55.2653 159.68C55.0413 159.251 54.7286 158.924 54.3273 158.7C53.9353 158.467 53.4873 158.35 52.9833 158.35ZM65.9729 160.73C65.9729 161.001 65.9542 161.234 65.9169 161.43H59.7709C59.7989 162.307 60.0462 162.965 60.5129 163.404C60.9889 163.843 61.5675 164.062 62.2489 164.062C62.8649 164.062 63.3782 163.908 63.7889 163.6C64.2089 163.283 64.4655 162.863 64.5589 162.34H65.9169C65.8235 162.872 65.6135 163.348 65.2869 163.768C64.9695 164.188 64.5542 164.515 64.0409 164.748C63.5275 164.981 62.9489 165.098 62.3049 165.098C61.5675 165.098 60.9142 164.939 60.3449 164.622C59.7755 164.305 59.3275 163.852 59.0009 163.264C58.6835 162.667 58.5249 161.967 58.5249 161.164C58.5249 160.361 58.6835 159.661 59.0009 159.064C59.3275 158.467 59.7755 158.009 60.3449 157.692C60.9142 157.375 61.5675 157.216 62.3049 157.216C63.0515 157.216 63.7002 157.375 64.2509 157.692C64.8109 158.009 65.2355 158.434 65.5249 158.966C65.8235 159.498 65.9729 160.086 65.9729 160.73ZM64.6849 160.814C64.7129 160.245 64.6195 159.769 64.4049 159.386C64.1902 159.003 63.8962 158.719 63.5229 158.532C63.1495 158.345 62.7435 158.252 62.3049 158.252C61.6049 158.252 61.0169 158.471 60.5409 158.91C60.0649 159.339 59.8082 159.974 59.7709 160.814H64.6849ZM68.9132 158.868C69.1652 158.336 69.5339 157.925 70.0192 157.636C70.5045 157.337 71.0832 157.188 71.7552 157.188V158.574H71.3632C70.6445 158.574 70.0565 158.761 69.5992 159.134C69.1419 159.498 68.9132 160.105 68.9132 160.954V165H67.6392V157.314H68.9132V158.868ZM79.6212 157.216C80.3679 157.216 80.9979 157.403 81.5112 157.776C82.0339 158.149 82.3979 158.649 82.6032 159.274V157.314H83.8772V165H82.6032V163.04C82.3979 163.665 82.0339 164.165 81.5112 164.538C80.9979 164.911 80.3679 165.098 79.6212 165.098C78.9399 165.098 78.3332 164.939 77.8012 164.622C77.2692 164.305 76.8492 163.852 76.5412 163.264C76.2426 162.667 76.0932 161.967 76.0932 161.164C76.0932 160.361 76.2426 159.661 76.5412 159.064C76.8492 158.467 77.2692 158.009 77.8012 157.692C78.3332 157.375 78.9399 157.216 79.6212 157.216ZM79.9852 158.35C79.2012 158.35 78.5712 158.602 78.0952 159.106C77.6286 159.601 77.3952 160.287 77.3952 161.164C77.3952 162.041 77.6286 162.732 78.0952 163.236C78.5712 163.731 79.2012 163.978 79.9852 163.978C80.4892 163.978 80.9372 163.861 81.3292 163.628C81.7306 163.395 82.0432 163.068 82.2672 162.648C82.4912 162.219 82.6032 161.724 82.6032 161.164C82.6032 160.604 82.4912 160.109 82.2672 159.68C82.0432 159.251 81.7306 158.924 81.3292 158.7C80.9372 158.467 80.4892 158.35 79.9852 158.35ZM90.1468 157.216C90.8281 157.216 91.4348 157.375 91.9668 157.692C92.4988 158.009 92.9141 158.467 93.2128 159.064C93.5208 159.661 93.6748 160.361 93.6748 161.164C93.6748 161.967 93.5208 162.667 93.2128 163.264C92.9141 163.852 92.4988 164.305 91.9668 164.622C91.4348 164.939 90.8281 165.098 90.1468 165.098C89.4001 165.098 88.7655 164.911 88.2428 164.538C87.7295 164.155 87.3748 163.656 87.1788 163.04V165H85.9048V154.64H87.1788V159.274C87.3748 158.658 87.7295 158.163 88.2428 157.79C88.7655 157.407 89.4001 157.216 90.1468 157.216ZM89.7828 158.35C89.2881 158.35 88.8401 158.467 88.4388 158.7C88.0375 158.924 87.7248 159.251 87.5008 159.68C87.2768 160.109 87.1648 160.604 87.1648 161.164C87.1648 161.724 87.2768 162.219 87.5008 162.648C87.7248 163.068 88.0375 163.395 88.4388 163.628C88.8401 163.861 89.2881 163.978 89.7828 163.978C90.5761 163.978 91.2061 163.731 91.6728 163.236C92.1488 162.732 92.3868 162.041 92.3868 161.164C92.3868 160.287 92.1488 159.601 91.6728 159.106C91.2061 158.602 90.5761 158.35 89.7828 158.35ZM98.8244 157.216C99.5617 157.216 100.22 157.375 100.798 157.692C101.386 158.009 101.844 158.467 102.17 159.064C102.506 159.661 102.674 160.361 102.674 161.164C102.674 161.967 102.506 162.667 102.17 163.264C101.844 163.852 101.386 164.305 100.798 164.622C100.22 164.939 99.5617 165.098 98.8244 165.098C98.0871 165.098 97.4244 164.939 96.8364 164.622C96.2577 164.305 95.8004 163.852 95.4644 163.264C95.1284 162.667 94.9604 161.967 94.9604 161.164C94.9604 160.361 95.1284 159.661 95.4644 159.064C95.8004 158.467 96.2577 158.009 96.8364 157.692C97.4244 157.375 98.0871 157.216 98.8244 157.216ZM98.8244 158.336C98.3671 158.336 97.9424 158.439 97.5504 158.644C97.1677 158.849 96.8551 159.167 96.6124 159.596C96.3791 160.016 96.2624 160.539 96.2624 161.164C96.2624 161.78 96.3791 162.303 96.6124 162.732C96.8551 163.152 97.1677 163.465 97.5504 163.67C97.9424 163.875 98.3671 163.978 98.8244 163.978C99.2817 163.978 99.7017 163.875 100.084 163.67C100.476 163.465 100.789 163.152 101.022 162.732C101.265 162.303 101.386 161.78 101.386 161.164C101.386 160.539 101.265 160.016 101.022 159.596C100.789 159.167 100.476 158.849 100.084 158.644C99.7017 158.439 99.2817 158.336 98.8244 158.336ZM107.317 163.642L109.697 157.314H111.069L108.059 165H106.547L103.537 157.314H104.909L107.317 163.642ZM119.389 160.73C119.389 161.001 119.37 161.234 119.333 161.43H113.187C113.215 162.307 113.462 162.965 113.929 163.404C114.405 163.843 114.984 164.062 115.665 164.062C116.281 164.062 116.794 163.908 117.205 163.6C117.625 163.283 117.882 162.863 117.975 162.34H119.333C119.24 162.872 119.03 163.348 118.703 163.768C118.386 164.188 117.97 164.515 117.457 164.748C116.944 164.981 116.365 165.098 115.721 165.098C114.984 165.098 114.33 164.939 113.761 164.622C113.192 164.305 112.744 163.852 112.417 163.264C112.1 162.667 111.941 161.967 111.941 161.164C111.941 160.361 112.1 159.661 112.417 159.064C112.744 158.467 113.192 158.009 113.761 157.692C114.33 157.375 114.984 157.216 115.721 157.216C116.468 157.216 117.116 157.375 117.667 157.692C118.227 158.009 118.652 158.434 118.941 158.966C119.24 159.498 119.389 160.086 119.389 160.73ZM118.101 160.814C118.129 160.245 118.036 159.769 117.821 159.386C117.606 159.003 117.312 158.719 116.939 158.532C116.566 158.345 116.16 158.252 115.721 158.252C115.021 158.252 114.433 158.471 113.957 158.91C113.481 159.339 113.224 159.974 113.187 160.814H118.101ZM127.762 159.47C128.49 159.694 129.055 159.895 129.456 160.072C129.858 160.249 130.208 160.529 130.506 160.912C130.805 161.285 130.954 161.794 130.954 162.438C130.954 162.905 130.838 163.339 130.604 163.74C130.38 164.141 130.03 164.468 129.554 164.72C129.078 164.972 128.495 165.098 127.804 165.098H127.762V166.218H127.328V165.07C126.442 164.986 125.718 164.697 125.158 164.202C124.598 163.698 124.286 163.077 124.22 162.34H125.578C125.616 162.732 125.784 163.101 126.082 163.446C126.39 163.782 126.806 163.992 127.328 164.076V160.492C126.61 160.277 126.05 160.086 125.648 159.918C125.256 159.741 124.911 159.465 124.612 159.092C124.323 158.719 124.178 158.219 124.178 157.594C124.178 157.081 124.309 156.628 124.57 156.236C124.832 155.844 125.2 155.541 125.676 155.326C126.152 155.111 126.703 155.004 127.328 155.004V153.8H127.762V155.018C128.63 155.083 129.321 155.349 129.834 155.816C130.348 156.283 130.651 156.847 130.744 157.51H129.372C129.307 157.155 129.139 156.838 128.868 156.558C128.598 156.278 128.229 156.101 127.762 156.026V159.47ZM125.55 157.538C125.55 158.014 125.7 158.383 125.998 158.644C126.306 158.905 126.75 159.134 127.328 159.33V155.998C126.787 155.998 126.353 156.133 126.026 156.404C125.709 156.665 125.55 157.043 125.55 157.538ZM127.776 164.104C128.355 164.104 128.803 163.95 129.12 163.642C129.438 163.334 129.596 162.942 129.596 162.466C129.596 161.971 129.438 161.589 129.12 161.318C128.803 161.047 128.35 160.819 127.762 160.632V164.104H127.776ZM132.229 164.02C133.815 162.956 135.085 161.901 136.037 160.856C136.989 159.801 137.465 158.821 137.465 157.916C137.465 157.356 137.32 156.908 137.031 156.572C136.751 156.227 136.293 156.054 135.659 156.054C135.005 156.054 134.511 156.264 134.175 156.684C133.839 157.095 133.652 157.664 133.615 158.392H132.355C132.42 157.291 132.761 156.446 133.377 155.858C133.993 155.261 134.786 154.962 135.757 154.962C136.681 154.962 137.413 155.209 137.955 155.704C138.496 156.199 138.767 156.899 138.767 157.804C138.767 158.551 138.524 159.311 138.039 160.086C137.563 160.851 136.961 161.565 136.233 162.228C135.514 162.881 134.772 163.437 134.007 163.894H139.019V164.944H132.229V164.02ZM141.166 163.712C140.643 162.825 140.382 161.589 140.382 160.002C140.382 158.425 140.643 157.197 141.166 156.32C141.689 155.433 142.594 154.99 143.882 154.99C145.17 154.99 146.075 155.433 146.598 156.32C147.13 157.207 147.396 158.434 147.396 160.002C147.396 161.589 147.13 162.825 146.598 163.712C146.075 164.599 145.17 165.042 143.882 165.042C142.594 165.042 141.689 164.599 141.166 163.712ZM145.954 162.046C146.075 161.495 146.136 160.814 146.136 160.002C146.136 159.199 146.075 158.527 145.954 157.986C145.842 157.445 145.623 157.015 145.296 156.698C144.969 156.371 144.498 156.208 143.882 156.208C143.275 156.208 142.809 156.371 142.482 156.698C142.155 157.015 141.931 157.445 141.81 157.986C141.698 158.527 141.642 159.199 141.642 160.002C141.642 160.814 141.698 161.495 141.81 162.046C141.931 162.587 142.155 163.021 142.482 163.348C142.809 163.675 143.275 163.838 143.882 163.838C144.498 163.838 144.969 163.675 145.296 163.348C145.623 163.021 145.842 162.587 145.954 162.046ZM149.766 163.712C149.243 162.825 148.982 161.589 148.982 160.002C148.982 158.425 149.243 157.197 149.766 156.32C150.288 155.433 151.194 154.99 152.482 154.99C153.77 154.99 154.675 155.433 155.198 156.32C155.73 157.207 155.996 158.434 155.996 160.002C155.996 161.589 155.73 162.825 155.198 163.712C154.675 164.599 153.77 165.042 152.482 165.042C151.194 165.042 150.288 164.599 149.766 163.712ZM154.554 162.046C154.675 161.495 154.736 160.814 154.736 160.002C154.736 159.199 154.675 158.527 154.554 157.986C154.442 157.445 154.222 157.015 153.896 156.698C153.569 156.371 153.098 156.208 152.482 156.208C151.875 156.208 151.408 156.371 151.082 156.698C150.755 157.015 150.531 157.445 150.41 157.986C150.298 158.527 150.242 159.199 150.242 160.002C150.242 160.814 150.298 161.495 150.41 162.046C150.531 162.587 150.755 163.021 151.082 163.348C151.408 163.675 151.875 163.838 152.482 163.838C153.098 163.838 153.569 163.675 153.896 163.348C154.222 163.021 154.442 162.587 154.554 162.046Z" fill="#191919"/>
</svg>
