<svg width="262" height="220" viewBox="0 0 262 220" fill="none" xmlns="http://www.w3.org/2000/svg">
<rect width="262" height="220" fill="#CFCFCF"/>
<rect x="36" y="56" width="40" height="32" rx="4" stroke="black" stroke-width="2.5"/>
<circle cx="4" cy="4" r="4" transform="matrix(1 0 0 -1 52 76)" stroke="black" stroke-width="2.5"/>
<circle cx="2" cy="2" r="2" transform="matrix(1 0 0 -1 66 74)" fill="black"/>
<circle cx="2" cy="2" r="2" transform="matrix(1 0 0 -1 42 74)" fill="black"/>
<path d="M48.02 119.1V133H45.72V122.58L41.7 133H39.7L35.66 122.58V133H33.38V119.1H36.14L40.74 130.2L45.26 119.1H48.02ZM55.8028 121.84C56.8695 121.84 57.8295 122.067 58.6828 122.52C59.5361 122.973 60.2028 123.627 60.6828 124.48C61.1628 125.333 61.4028 126.333 61.4028 127.48C61.4028 128.64 61.1628 129.647 60.6828 130.5C60.2028 131.353 59.5361 132.007 58.6828 132.46C57.8295 132.913 56.8695 133.14 55.8028 133.14C54.7361 133.14 53.7761 132.913 52.9228 132.46C52.0828 132.007 51.4161 131.353 50.9228 130.5C50.4428 129.633 50.2028 128.627 50.2028 127.48C50.2028 126.333 50.4428 125.333 50.9228 124.48C51.4161 123.627 52.0828 122.973 52.9228 122.52C53.7761 122.067 54.7361 121.84 55.8028 121.84ZM55.8028 123.82C55.2161 123.82 54.6761 123.953 54.1828 124.22C53.6895 124.487 53.2895 124.9 52.9828 125.46C52.6895 126.007 52.5428 126.68 52.5428 127.48C52.5428 128.293 52.6895 128.973 52.9828 129.52C53.2895 130.067 53.6895 130.473 54.1828 130.74C54.6761 131.007 55.2161 131.14 55.8028 131.14C56.3895 131.14 56.9295 131.007 57.4228 130.74C57.9161 130.473 58.3095 130.067 58.6028 129.52C58.9095 128.973 59.0628 128.293 59.0628 127.48C59.0628 126.68 58.9095 126.007 58.6028 125.46C58.3095 124.9 57.9161 124.487 57.4228 124.22C56.9295 123.953 56.3895 123.82 55.8028 123.82ZM69.7548 121.8C71.0348 121.8 72.0615 122.213 72.8348 123.04C73.6082 123.867 73.9948 125.047 73.9948 126.58V133H71.7148V126.82C71.7148 125.833 71.4615 125.073 70.9548 124.54C70.4482 123.993 69.7548 123.72 68.8748 123.72C67.9682 123.72 67.2415 124.013 66.6948 124.6C66.1482 125.173 65.8748 126.02 65.8748 127.14V133H63.5948V121.98H65.8748V124.4C66.1682 123.573 66.6615 122.933 67.3548 122.48C68.0482 122.027 68.8482 121.8 69.7548 121.8ZM86.9013 126.96C86.9013 127.333 86.8746 127.66 86.8213 127.94H78.3413C78.3813 129.073 78.6946 129.913 79.2813 130.46C79.8679 131.007 80.5946 131.28 81.4613 131.28C82.2213 131.28 82.8613 131.087 83.3813 130.7C83.9146 130.313 84.2413 129.8 84.3613 129.16H86.8013C86.6546 129.933 86.3479 130.62 85.8813 131.22C85.4146 131.82 84.8079 132.293 84.0613 132.64C83.3146 132.973 82.4813 133.14 81.5613 133.14C80.4946 133.14 79.5479 132.913 78.7213 132.46C77.9079 132.007 77.2679 131.353 76.8013 130.5C76.3346 129.647 76.1013 128.64 76.1013 127.48C76.1013 126.333 76.3346 125.333 76.8013 124.48C77.2679 123.627 77.9079 122.973 78.7213 122.52C79.5479 122.067 80.4946 121.84 81.5613 121.84C82.6413 121.84 83.5813 122.067 84.3813 122.52C85.1946 122.96 85.8146 123.573 86.2413 124.36C86.6813 125.133 86.9013 126 86.9013 126.96ZM84.6013 126.9C84.6279 126.18 84.5013 125.58 84.2213 125.1C83.9546 124.607 83.5813 124.247 83.1013 124.02C82.6346 123.78 82.1213 123.66 81.5613 123.66C80.6679 123.66 79.9213 123.933 79.3213 124.48C78.7213 125.027 78.3946 125.833 78.3413 126.9H84.6013ZM90.4027 121.98L93.7027 130.08L96.7627 121.98H99.3027L92.6427 138.24H90.1027L92.4827 132.74L87.8427 121.98H90.4027ZM107.482 124.8V126.72H99.2419V124.8H107.482ZM117.239 121.84C118.199 121.84 119.052 122.067 119.799 122.52C120.559 122.973 121.152 123.627 121.579 124.48C122.006 125.333 122.219 126.333 122.219 127.48C122.219 128.64 122.006 129.647 121.579 130.5C121.152 131.353 120.559 132.007 119.799 132.46C119.052 132.913 118.199 133.14 117.239 133.14C116.239 133.14 115.386 132.893 114.679 132.4C113.972 131.907 113.479 131.253 113.199 130.44V133H110.919V118.2H113.199V124.54C113.479 123.727 113.972 123.073 114.679 122.58C115.386 122.087 116.239 121.84 117.239 121.84ZM116.539 123.84C115.899 123.84 115.326 123.993 114.819 124.3C114.312 124.593 113.912 125.02 113.619 125.58C113.326 126.127 113.179 126.76 113.179 127.48C113.179 128.213 113.326 128.853 113.619 129.4C113.912 129.947 114.312 130.373 114.819 130.68C115.326 130.973 115.899 131.12 116.539 131.12C117.552 131.12 118.366 130.8 118.979 130.16C119.592 129.507 119.899 128.613 119.899 127.48C119.899 126.36 119.592 125.473 118.979 124.82C118.366 124.167 117.552 123.84 116.539 123.84ZM128.835 121.84C129.835 121.84 130.688 122.087 131.395 122.58C132.102 123.073 132.602 123.727 132.895 124.54V121.98H135.175V133H132.895V130.44C132.602 131.253 132.102 131.907 131.395 132.4C130.688 132.893 129.835 133.14 128.835 133.14C127.875 133.14 127.015 132.913 126.255 132.46C125.508 132.007 124.922 131.353 124.495 130.5C124.068 129.647 123.855 128.64 123.855 127.48C123.855 126.333 124.068 125.333 124.495 124.48C124.922 123.627 125.508 122.973 126.255 122.52C127.015 122.067 127.875 121.84 128.835 121.84ZM129.535 123.84C128.522 123.84 127.708 124.167 127.095 124.82C126.495 125.46 126.195 126.347 126.195 127.48C126.195 128.613 126.495 129.507 127.095 130.16C127.708 130.8 128.522 131.12 129.535 131.12C130.175 131.12 130.748 130.973 131.255 130.68C131.762 130.373 132.162 129.947 132.455 129.4C132.748 128.853 132.895 128.213 132.895 127.48C132.895 126.76 132.748 126.127 132.455 125.58C132.162 125.02 131.762 124.593 131.255 124.3C130.748 123.993 130.175 123.84 129.535 123.84ZM142.811 121.84C144.238 121.84 145.418 122.22 146.351 122.98C147.285 123.727 147.865 124.747 148.091 126.04H145.671C145.538 125.347 145.211 124.807 144.691 124.42C144.185 124.02 143.545 123.82 142.771 123.82C141.891 123.82 141.158 124.133 140.571 124.76C139.985 125.373 139.691 126.28 139.691 127.48C139.691 128.68 139.985 129.593 140.571 130.22C141.158 130.847 141.891 131.16 142.771 131.16C143.545 131.16 144.185 130.96 144.691 130.56C145.211 130.16 145.538 129.613 145.671 128.92H148.091C147.865 130.213 147.285 131.24 146.351 132C145.418 132.76 144.238 133.14 142.811 133.14C141.745 133.14 140.798 132.913 139.971 132.46C139.158 132.007 138.518 131.353 138.051 130.5C137.585 129.647 137.351 128.64 137.351 127.48C137.351 126.333 137.585 125.333 138.051 124.48C138.518 123.627 139.158 122.973 139.971 122.52C140.798 122.067 141.745 121.84 142.811 121.84ZM156.534 133L152.574 128.1V133H150.294V118.2H152.574V126.68L156.494 121.98H159.234L154.434 127.46L159.354 133H156.534Z" fill="black"/>
<path d="M32.84 157.426C32.9053 156.567 33.2367 155.895 33.834 155.41C34.4313 154.925 35.206 154.682 36.158 154.682C36.7927 154.682 37.3387 154.799 37.796 155.032C38.2627 155.256 38.6127 155.564 38.846 155.956C39.0887 156.348 39.21 156.791 39.21 157.286C39.21 157.865 39.042 158.364 38.706 158.784C38.3793 159.204 37.95 159.475 37.418 159.596V159.666C38.0247 159.815 38.5053 160.109 38.86 160.548C39.2147 160.987 39.392 161.561 39.392 162.27C39.392 162.802 39.2707 163.283 39.028 163.712C38.7853 164.132 38.4213 164.463 37.936 164.706C37.4507 164.949 36.8673 165.07 36.186 165.07C35.1967 165.07 34.3847 164.813 33.75 164.3C33.1153 163.777 32.7607 163.04 32.686 162.088H33.918C33.9833 162.648 34.212 163.105 34.604 163.46C34.996 163.815 35.5187 163.992 36.172 163.992C36.8253 163.992 37.32 163.824 37.656 163.488C38.0013 163.143 38.174 162.699 38.174 162.158C38.174 161.458 37.9407 160.954 37.474 160.646C37.0073 160.338 36.3027 160.184 35.36 160.184H35.038V159.12H35.374C36.2327 159.111 36.8813 158.971 37.32 158.7C37.7587 158.42 37.978 157.991 37.978 157.412C37.978 156.917 37.8147 156.521 37.488 156.222C37.1707 155.923 36.7133 155.774 36.116 155.774C35.5373 155.774 35.0707 155.923 34.716 156.222C34.3613 156.521 34.1513 156.922 34.086 157.426H32.84ZM41.1121 159.834C41.1121 158.229 41.3735 156.978 41.8961 156.082C42.4188 155.177 43.3335 154.724 44.6401 154.724C45.9375 154.724 46.8475 155.177 47.3701 156.082C47.8928 156.978 48.1541 158.229 48.1541 159.834C48.1541 161.467 47.8928 162.737 47.3701 163.642C46.8475 164.547 45.9375 165 44.6401 165C43.3335 165 42.4188 164.547 41.8961 163.642C41.3735 162.737 41.1121 161.467 41.1121 159.834ZM46.8941 159.834C46.8941 159.022 46.8381 158.336 46.7261 157.776C46.6235 157.207 46.4041 156.749 46.0681 156.404C45.7415 156.059 45.2655 155.886 44.6401 155.886C44.0055 155.886 43.5201 156.059 43.1841 156.404C42.8575 156.749 42.6381 157.207 42.5261 157.776C42.4235 158.336 42.3721 159.022 42.3721 159.834C42.3721 160.674 42.4235 161.379 42.5261 161.948C42.6381 162.517 42.8575 162.975 43.1841 163.32C43.5201 163.665 44.0055 163.838 44.6401 163.838C45.2655 163.838 45.7415 163.665 46.0681 163.32C46.4041 162.975 46.6235 162.517 46.7261 161.948C46.8381 161.379 46.8941 160.674 46.8941 159.834ZM53.3696 161.136C53.3696 160.352 53.5282 159.666 53.8456 159.078C54.1629 158.481 54.5969 158.019 55.1476 157.692C55.7076 157.365 56.3329 157.202 57.0236 157.202C57.6209 157.202 58.1762 157.342 58.6896 157.622C59.2029 157.893 59.5949 158.252 59.8656 158.7V154.64H61.1536V165H59.8656V163.558C59.6136 164.015 59.2402 164.393 58.7456 164.692C58.2509 164.981 57.6722 165.126 57.0096 165.126C56.3282 165.126 55.7076 164.958 55.1476 164.622C54.5969 164.286 54.1629 163.815 53.8456 163.208C53.5282 162.601 53.3696 161.911 53.3696 161.136ZM59.8656 161.15C59.8656 160.571 59.7489 160.067 59.5156 159.638C59.2822 159.209 58.9649 158.882 58.5636 158.658C58.1716 158.425 57.7376 158.308 57.2616 158.308C56.7856 158.308 56.3516 158.42 55.9596 158.644C55.5676 158.868 55.2549 159.195 55.0216 159.624C54.7882 160.053 54.6716 160.557 54.6716 161.136C54.6716 161.724 54.7882 162.237 55.0216 162.676C55.2549 163.105 55.5676 163.437 55.9596 163.67C56.3516 163.894 56.7856 164.006 57.2616 164.006C57.7376 164.006 58.1716 163.894 58.5636 163.67C58.9649 163.437 59.2822 163.105 59.5156 162.676C59.7489 162.237 59.8656 161.729 59.8656 161.15ZM62.8305 161.136C62.8305 160.352 62.9892 159.666 63.3065 159.078C63.6238 158.481 64.0578 158.019 64.6085 157.692C65.1685 157.365 65.7892 157.202 66.4705 157.202C67.1425 157.202 67.7258 157.347 68.2205 157.636C68.7152 157.925 69.0838 158.289 69.3265 158.728V157.328H70.6145V165H69.3265V163.572C69.0745 164.02 68.6965 164.393 68.1925 164.692C67.6978 164.981 67.1192 165.126 66.4565 165.126C65.7752 165.126 65.1592 164.958 64.6085 164.622C64.0578 164.286 63.6238 163.815 63.3065 163.208C62.9892 162.601 62.8305 161.911 62.8305 161.136ZM69.3265 161.15C69.3265 160.571 69.2098 160.067 68.9765 159.638C68.7432 159.209 68.4258 158.882 68.0245 158.658C67.6325 158.425 67.1985 158.308 66.7225 158.308C66.2465 158.308 65.8125 158.42 65.4205 158.644C65.0285 158.868 64.7158 159.195 64.4825 159.624C64.2492 160.053 64.1325 160.557 64.1325 161.136C64.1325 161.724 64.2492 162.237 64.4825 162.676C64.7158 163.105 65.0285 163.437 65.4205 163.67C65.8125 163.894 66.2465 164.006 66.7225 164.006C67.1985 164.006 67.6325 163.894 68.0245 163.67C68.4258 163.437 68.7432 163.105 68.9765 162.676C69.2098 162.237 69.3265 161.729 69.3265 161.15ZM79.3755 157.328L74.7555 168.612H73.4395L74.9515 164.916L71.8575 157.328H73.2715L75.6795 163.544L78.0595 157.328H79.3755ZM83.3721 165.126C82.7841 165.126 82.2568 165.028 81.7901 164.832C81.3235 164.627 80.9548 164.347 80.6841 163.992C80.4135 163.628 80.2641 163.213 80.2361 162.746H81.5521C81.5895 163.129 81.7668 163.441 82.0841 163.684C82.4108 163.927 82.8355 164.048 83.3581 164.048C83.8435 164.048 84.2261 163.941 84.5061 163.726C84.7861 163.511 84.9261 163.241 84.9261 162.914C84.9261 162.578 84.7768 162.331 84.4781 162.172C84.1795 162.004 83.7175 161.841 83.0921 161.682C82.5228 161.533 82.0561 161.383 81.6921 161.234C81.3375 161.075 81.0295 160.847 80.7681 160.548C80.5161 160.24 80.3901 159.839 80.3901 159.344C80.3901 158.952 80.5068 158.593 80.7401 158.266C80.9735 157.939 81.3048 157.683 81.7341 157.496C82.1635 157.3 82.6535 157.202 83.2041 157.202C84.0535 157.202 84.7395 157.417 85.2621 157.846C85.7848 158.275 86.0648 158.863 86.1021 159.61H84.8281C84.8001 159.209 84.6368 158.887 84.3381 158.644C84.0488 158.401 83.6568 158.28 83.1621 158.28C82.7048 158.28 82.3408 158.378 82.0701 158.574C81.7995 158.77 81.6641 159.027 81.6641 159.344C81.6641 159.596 81.7435 159.806 81.9021 159.974C82.0701 160.133 82.2755 160.263 82.5181 160.366C82.7701 160.459 83.1155 160.567 83.5541 160.688C84.1048 160.837 84.5528 160.987 84.8981 161.136C85.2435 161.276 85.5375 161.491 85.7801 161.78C86.0321 162.069 86.1628 162.447 86.1721 162.914C86.1721 163.334 86.0555 163.712 85.8221 164.048C85.5888 164.384 85.2575 164.65 84.8281 164.846C84.4081 165.033 83.9228 165.126 83.3721 165.126ZM94.867 157.202C95.5297 157.202 96.1083 157.347 96.603 157.636C97.107 157.925 97.4803 158.289 97.723 158.728V157.328H99.011V165.168C99.011 165.868 98.8617 166.489 98.563 167.03C98.2643 167.581 97.835 168.01 97.275 168.318C96.7243 168.626 96.0803 168.78 95.343 168.78C94.335 168.78 93.495 168.542 92.823 168.066C92.151 167.59 91.7543 166.941 91.633 166.12H92.893C93.033 166.587 93.3223 166.96 93.761 167.24C94.1997 167.529 94.727 167.674 95.343 167.674C96.043 167.674 96.6123 167.455 97.051 167.016C97.499 166.577 97.723 165.961 97.723 165.168V163.558C97.471 164.006 97.0977 164.379 96.603 164.678C96.1083 164.977 95.5297 165.126 94.867 165.126C94.1857 165.126 93.565 164.958 93.005 164.622C92.4543 164.286 92.0203 163.815 91.703 163.208C91.3857 162.601 91.227 161.911 91.227 161.136C91.227 160.352 91.3857 159.666 91.703 159.078C92.0203 158.481 92.4543 158.019 93.005 157.692C93.565 157.365 94.1857 157.202 94.867 157.202ZM97.723 161.15C97.723 160.571 97.6063 160.067 97.373 159.638C97.1397 159.209 96.8223 158.882 96.421 158.658C96.029 158.425 95.595 158.308 95.119 158.308C94.643 158.308 94.209 158.42 93.817 158.644C93.425 158.868 93.1123 159.195 92.879 159.624C92.6457 160.053 92.529 160.557 92.529 161.136C92.529 161.724 92.6457 162.237 92.879 162.676C93.1123 163.105 93.425 163.437 93.817 163.67C94.209 163.894 94.643 164.006 95.119 164.006C95.595 164.006 96.029 163.894 96.421 163.67C96.8223 163.437 97.1397 163.105 97.373 162.676C97.6063 162.237 97.723 161.729 97.723 161.15ZM107.968 157.328V165H106.694V163.866C106.451 164.258 106.111 164.566 105.672 164.79C105.243 165.005 104.767 165.112 104.244 165.112C103.647 165.112 103.11 164.991 102.634 164.748C102.158 164.496 101.78 164.123 101.5 163.628C101.229 163.133 101.094 162.531 101.094 161.822V157.328H102.354V161.654C102.354 162.41 102.545 162.993 102.928 163.404C103.311 163.805 103.833 164.006 104.496 164.006C105.177 164.006 105.714 163.796 106.106 163.376C106.498 162.956 106.694 162.345 106.694 161.542V157.328H107.968ZM109.643 161.136C109.643 160.352 109.802 159.666 110.119 159.078C110.436 158.481 110.87 158.019 111.421 157.692C111.981 157.365 112.602 157.202 113.283 157.202C113.955 157.202 114.538 157.347 115.033 157.636C115.528 157.925 115.896 158.289 116.139 158.728V157.328H117.427V165H116.139V163.572C115.887 164.02 115.509 164.393 115.005 164.692C114.51 164.981 113.932 165.126 113.269 165.126C112.588 165.126 111.972 164.958 111.421 164.622C110.87 164.286 110.436 163.815 110.119 163.208C109.802 162.601 109.643 161.911 109.643 161.136ZM116.139 161.15C116.139 160.571 116.022 160.067 115.789 159.638C115.556 159.209 115.238 158.882 114.837 158.658C114.445 158.425 114.011 158.308 113.535 158.308C113.059 158.308 112.625 158.42 112.233 158.644C111.841 158.868 111.528 159.195 111.295 159.624C111.062 160.053 110.945 160.557 110.945 161.136C110.945 161.724 111.062 162.237 111.295 162.676C111.528 163.105 111.841 163.437 112.233 163.67C112.625 163.894 113.059 164.006 113.535 164.006C114.011 164.006 114.445 163.894 114.837 163.67C115.238 163.437 115.556 163.105 115.789 162.676C116.022 162.237 116.139 161.729 116.139 161.15ZM120.854 158.574C121.078 158.135 121.395 157.795 121.806 157.552C122.226 157.309 122.735 157.188 123.332 157.188V158.504H122.996C121.568 158.504 120.854 159.279 120.854 160.828V165H119.58V157.328H120.854V158.574ZM124.327 161.136C124.327 160.352 124.485 159.666 124.803 159.078C125.12 158.481 125.554 158.019 126.105 157.692C126.665 157.365 127.285 157.202 127.967 157.202C128.639 157.202 129.222 157.347 129.717 157.636C130.211 157.925 130.58 158.289 130.823 158.728V157.328H132.111V165H130.823V163.572C130.571 164.02 130.193 164.393 129.689 164.692C129.194 164.981 128.615 165.126 127.953 165.126C127.271 165.126 126.655 164.958 126.105 164.622C125.554 164.286 125.12 163.815 124.803 163.208C124.485 162.601 124.327 161.911 124.327 161.136ZM130.823 161.15C130.823 160.571 130.706 160.067 130.473 159.638C130.239 159.209 129.922 158.882 129.521 158.658C129.129 158.425 128.695 158.308 128.219 158.308C127.743 158.308 127.309 158.42 126.917 158.644C126.525 158.868 126.212 159.195 125.979 159.624C125.745 160.053 125.629 160.557 125.629 161.136C125.629 161.724 125.745 162.237 125.979 162.676C126.212 163.105 126.525 163.437 126.917 163.67C127.309 163.894 127.743 164.006 128.219 164.006C128.695 164.006 129.129 163.894 129.521 163.67C129.922 163.437 130.239 163.105 130.473 162.676C130.706 162.237 130.823 161.729 130.823 161.15ZM138.002 157.188C138.935 157.188 139.691 157.473 140.27 158.042C140.848 158.602 141.138 159.414 141.138 160.478V165H139.878V160.66C139.878 159.895 139.686 159.311 139.304 158.91C138.921 158.499 138.398 158.294 137.736 158.294C137.064 158.294 136.527 158.504 136.126 158.924C135.734 159.344 135.538 159.955 135.538 160.758V165H134.264V157.328H135.538V158.42C135.79 158.028 136.13 157.725 136.56 157.51C136.998 157.295 137.479 157.188 138.002 157.188ZM144.773 158.378V162.9C144.773 163.273 144.852 163.539 145.011 163.698C145.169 163.847 145.445 163.922 145.837 163.922H146.775V165H145.627C144.917 165 144.385 164.837 144.031 164.51C143.676 164.183 143.499 163.647 143.499 162.9V158.378H142.505V157.328H143.499V155.396H144.773V157.328H146.775V158.378H144.773ZM155.318 160.87C155.318 161.113 155.304 161.369 155.276 161.64H149.144C149.191 162.396 149.448 162.989 149.914 163.418C150.39 163.838 150.964 164.048 151.636 164.048C152.187 164.048 152.644 163.922 153.008 163.67C153.382 163.409 153.643 163.063 153.792 162.634H155.164C154.959 163.371 154.548 163.973 153.932 164.44C153.316 164.897 152.551 165.126 151.636 165.126C150.908 165.126 150.255 164.963 149.676 164.636C149.107 164.309 148.659 163.847 148.332 163.25C148.006 162.643 147.842 161.943 147.842 161.15C147.842 160.357 148.001 159.661 148.318 159.064C148.636 158.467 149.079 158.009 149.648 157.692C150.227 157.365 150.89 157.202 151.636 157.202C152.364 157.202 153.008 157.361 153.568 157.678C154.128 157.995 154.558 158.434 154.856 158.994C155.164 159.545 155.318 160.17 155.318 160.87ZM154.002 160.604C154.002 160.119 153.895 159.703 153.68 159.358C153.466 159.003 153.172 158.737 152.798 158.56C152.434 158.373 152.028 158.28 151.58 158.28C150.936 158.28 150.386 158.485 149.928 158.896C149.48 159.307 149.224 159.876 149.158 160.604H154.002ZM164 160.87C164 161.113 163.986 161.369 163.958 161.64H157.826C157.873 162.396 158.129 162.989 158.596 163.418C159.072 163.838 159.646 164.048 160.318 164.048C160.869 164.048 161.326 163.922 161.69 163.67C162.063 163.409 162.325 163.063 162.474 162.634H163.846C163.641 163.371 163.23 163.973 162.614 164.44C161.998 164.897 161.233 165.126 160.318 165.126C159.59 165.126 158.937 164.963 158.358 164.636C157.789 164.309 157.341 163.847 157.014 163.25C156.687 162.643 156.524 161.943 156.524 161.15C156.524 160.357 156.683 159.661 157 159.064C157.317 158.467 157.761 158.009 158.33 157.692C158.909 157.365 159.571 157.202 160.318 157.202C161.046 157.202 161.69 157.361 162.25 157.678C162.81 157.995 163.239 158.434 163.538 158.994C163.846 159.545 164 160.17 164 160.87ZM162.684 160.604C162.684 160.119 162.577 159.703 162.362 159.358C162.147 159.003 161.853 158.737 161.48 158.56C161.116 158.373 160.71 158.28 160.262 158.28C159.618 158.28 159.067 158.485 158.61 158.896C158.162 159.307 157.905 159.876 157.84 160.604H162.684Z" fill="#191919"/>
</svg>
