<svg width="262" height="220" viewBox="0 0 262 220" fill="none" xmlns="http://www.w3.org/2000/svg">
<rect width="262" height="220" fill="#CFCFCF"/>
<path d="M64 64H48M64 64C68.4183 64 72 67.5817 72 72V84C72 88.4183 68.4183 92 64 92H48C43.5817 92 40 88.4183 40 84V72C40 67.5817 43.5817 64 48 64M64 64V60C64 55.5817 60.4183 52 56 52C51.5817 52 48 55.5817 48 60V64M56 80V76" stroke="black" stroke-width="2.5" stroke-linecap="round"/>
<path d="M42.66 129.24C42.66 129.933 42.4933 130.58 42.16 131.18C41.8267 131.767 41.32 132.24 40.64 132.6C39.96 132.96 39.1267 133.14 38.14 133.14C37.18 133.14 36.32 132.973 35.56 132.64C34.8 132.293 34.1933 131.813 33.74 131.2C33.2867 130.587 33.0267 129.88 32.96 129.08H35.4C35.4667 129.693 35.7267 130.22 36.18 130.66C36.6467 131.1 37.2667 131.32 38.04 131.32C38.7333 131.32 39.2667 131.133 39.64 130.76C40.0267 130.387 40.22 129.907 40.22 129.32C40.22 128.813 40.08 128.4 39.8 128.08C39.52 127.747 39.1733 127.487 38.76 127.3C38.3467 127.113 37.78 126.9 37.06 126.66C36.18 126.38 35.46 126.1 34.9 125.82C34.3533 125.54 33.8867 125.133 33.5 124.6C33.1133 124.067 32.92 123.367 32.92 122.5C32.92 121.74 33.1067 121.073 33.48 120.5C33.8533 119.927 34.3867 119.487 35.08 119.18C35.7733 118.86 36.5733 118.7 37.48 118.7C38.92 118.7 40.06 119.047 40.9 119.74C41.7533 120.433 42.24 121.34 42.36 122.46H39.9C39.8067 121.927 39.5533 121.473 39.14 121.1C38.74 120.713 38.1867 120.52 37.48 120.52C36.84 120.52 36.3267 120.687 35.94 121.02C35.5533 121.34 35.36 121.807 35.36 122.42C35.36 122.9 35.4933 123.3 35.76 123.62C36.0267 123.927 36.36 124.173 36.76 124.36C37.1733 124.533 37.7333 124.74 38.44 124.98C39.3333 125.26 40.06 125.547 40.62 125.84C41.1933 126.12 41.6733 126.533 42.06 127.08C42.46 127.627 42.66 128.347 42.66 129.24ZM55.1825 126.96C55.1825 127.333 55.1558 127.66 55.1025 127.94H46.6225C46.6625 129.073 46.9758 129.913 47.5625 130.46C48.1492 131.007 48.8758 131.28 49.7425 131.28C50.5025 131.28 51.1425 131.087 51.6625 130.7C52.1958 130.313 52.5225 129.8 52.6425 129.16H55.0825C54.9358 129.933 54.6292 130.62 54.1625 131.22C53.6958 131.82 53.0892 132.293 52.3425 132.64C51.5958 132.973 50.7625 133.14 49.8425 133.14C48.7758 133.14 47.8292 132.913 47.0025 132.46C46.1892 132.007 45.5492 131.353 45.0825 130.5C44.6158 129.647 44.3825 128.64 44.3825 127.48C44.3825 126.333 44.6158 125.333 45.0825 124.48C45.5492 123.627 46.1892 122.973 47.0025 122.52C47.8292 122.067 48.7758 121.84 49.8425 121.84C50.9225 121.84 51.8625 122.067 52.6625 122.52C53.4758 122.96 54.0958 123.573 54.5225 124.36C54.9625 125.133 55.1825 126 55.1825 126.96ZM52.8825 126.9C52.9092 126.18 52.7825 125.58 52.5025 125.1C52.2358 124.607 51.8625 124.247 51.3825 124.02C50.9158 123.78 50.4025 123.66 49.8425 123.66C48.9492 123.66 48.2025 123.933 47.6025 124.48C47.0025 125.027 46.6758 125.833 46.6225 126.9H52.8825ZM62.2839 121.84C63.7106 121.84 64.8906 122.22 65.8239 122.98C66.7572 123.727 67.3372 124.747 67.5639 126.04H65.1439C65.0106 125.347 64.6839 124.807 64.1639 124.42C63.6572 124.02 63.0172 123.82 62.2439 123.82C61.3639 123.82 60.6306 124.133 60.0439 124.76C59.4572 125.373 59.1639 126.28 59.1639 127.48C59.1639 128.68 59.4572 129.593 60.0439 130.22C60.6306 130.847 61.3639 131.16 62.2439 131.16C63.0172 131.16 63.6572 130.96 64.1639 130.56C64.6839 130.16 65.0106 129.613 65.1439 128.92H67.5639C67.3372 130.213 66.7572 131.24 65.8239 132C64.8906 132.76 63.7106 133.14 62.2839 133.14C61.2172 133.14 60.2706 132.913 59.4439 132.46C58.6306 132.007 57.9906 131.353 57.5239 130.5C57.0572 129.647 56.8239 128.64 56.8239 127.48C56.8239 126.333 57.0572 125.333 57.5239 124.48C57.9906 123.627 58.6306 122.973 59.4439 122.52C60.2706 122.067 61.2172 121.84 62.2839 121.84ZM79.9267 121.98V133H77.6267V130.6C77.3467 131.413 76.8601 132.047 76.1667 132.5C75.4734 132.94 74.6667 133.16 73.7467 133.16C72.4667 133.16 71.4401 132.747 70.6667 131.92C69.8934 131.093 69.5067 129.913 69.5067 128.38V121.98H71.7867V128.14C71.7867 129.14 72.0401 129.913 72.5467 130.46C73.0534 130.993 73.7467 131.26 74.6267 131.26C75.5334 131.26 76.2601 130.967 76.8067 130.38C77.3534 129.793 77.6267 128.94 77.6267 127.82V121.98H79.9267ZM84.9373 124.14C85.3107 123.42 85.844 122.853 86.5373 122.44C87.2307 122.013 88.0307 121.8 88.9373 121.8V124.28H88.2573C87.2573 124.28 86.4507 124.527 85.8373 125.02C85.2373 125.5 84.9373 126.3 84.9373 127.42V133H82.6573V121.98H84.9373V124.14ZM100.886 126.96C100.886 127.333 100.859 127.66 100.806 127.94H92.3256C92.3656 129.073 92.679 129.913 93.2656 130.46C93.8523 131.007 94.579 131.28 95.4456 131.28C96.2056 131.28 96.8456 131.087 97.3656 130.7C97.899 130.313 98.2256 129.8 98.3456 129.16H100.786C100.639 129.933 100.332 130.62 99.8656 131.22C99.399 131.82 98.7923 132.293 98.0456 132.64C97.299 132.973 96.4656 133.14 95.5456 133.14C94.479 133.14 93.5323 132.913 92.7056 132.46C91.8923 132.007 91.2523 131.353 90.7856 130.5C90.319 129.647 90.0856 128.64 90.0856 127.48C90.0856 126.333 90.319 125.333 90.7856 124.48C91.2523 123.627 91.8923 122.973 92.7056 122.52C93.5323 122.067 94.479 121.84 95.5456 121.84C96.6256 121.84 97.5656 122.067 98.3656 122.52C99.179 122.96 99.799 123.573 100.226 124.36C100.666 125.133 100.886 126 100.886 126.96ZM98.5856 126.9C98.6123 126.18 98.4856 125.58 98.2056 125.1C97.939 124.607 97.5656 124.247 97.0856 124.02C96.619 123.78 96.1056 123.66 95.5456 123.66C94.6523 123.66 93.9056 123.933 93.3056 124.48C92.7056 125.027 92.379 125.833 92.3256 126.9H98.5856ZM110.055 127.52V133H107.775V118.88H112.575C114.201 118.88 115.421 119.267 116.235 120.04C117.061 120.813 117.475 121.873 117.475 123.22C117.475 124.553 117.055 125.607 116.215 126.38C115.375 127.14 114.161 127.52 112.575 127.52H110.055ZM112.335 125.66C114.215 125.66 115.155 124.847 115.155 123.22C115.155 122.42 114.928 121.813 114.475 121.4C114.035 120.973 113.321 120.76 112.335 120.76H110.055V125.66H112.335ZM123.894 121.84C124.894 121.84 125.747 122.087 126.454 122.58C127.16 123.073 127.66 123.727 127.954 124.54V121.98H130.234V133H127.954V130.44C127.66 131.253 127.16 131.907 126.454 132.4C125.747 132.893 124.894 133.14 123.894 133.14C122.934 133.14 122.074 132.913 121.314 132.46C120.567 132.007 119.98 131.353 119.554 130.5C119.127 129.647 118.914 128.64 118.914 127.48C118.914 126.333 119.127 125.333 119.554 124.48C119.98 123.627 120.567 122.973 121.314 122.52C122.074 122.067 122.934 121.84 123.894 121.84ZM124.594 123.84C123.58 123.84 122.767 124.167 122.154 124.82C121.554 125.46 121.254 126.347 121.254 127.48C121.254 128.613 121.554 129.507 122.154 130.16C122.767 130.8 123.58 131.12 124.594 131.12C125.234 131.12 125.807 130.973 126.314 130.68C126.82 130.373 127.22 129.947 127.514 129.4C127.807 128.853 127.954 128.213 127.954 127.48C127.954 126.76 127.807 126.127 127.514 125.58C127.22 125.02 126.82 124.593 126.314 124.3C125.807 123.993 125.234 123.84 124.594 123.84ZM134.27 121.98L137.57 130.08L140.63 121.98H143.17L136.51 138.24H133.97L136.35 132.74L131.71 121.98H134.27ZM158.449 121.8C159.756 121.8 160.796 122.213 161.569 123.04C162.356 123.867 162.749 125.047 162.749 126.58V133H160.469V126.82C160.469 125.86 160.229 125.12 159.749 124.6C159.269 124.067 158.609 123.8 157.769 123.8C156.876 123.8 156.162 124.087 155.629 124.66C155.109 125.22 154.849 126.047 154.849 127.14V133H152.569V126.82C152.569 125.86 152.329 125.12 151.849 124.6C151.369 124.067 150.709 123.8 149.869 123.8C148.976 123.8 148.262 124.087 147.729 124.66C147.209 125.22 146.949 126.047 146.949 127.14V133H144.669V121.98H146.949V124.28C147.229 123.48 147.696 122.867 148.349 122.44C149.002 122.013 149.769 121.8 150.649 121.8C151.569 121.8 152.362 122.027 153.029 122.48C153.709 122.933 154.202 123.587 154.509 124.44C154.829 123.613 155.342 122.967 156.049 122.5C156.756 122.033 157.556 121.8 158.449 121.8ZM175.651 126.96C175.651 127.333 175.625 127.66 175.571 127.94H167.091C167.131 129.073 167.445 129.913 168.031 130.46C168.618 131.007 169.345 131.28 170.211 131.28C170.971 131.28 171.611 131.087 172.131 130.7C172.665 130.313 172.991 129.8 173.111 129.16H175.551C175.405 129.933 175.098 130.62 174.631 131.22C174.165 131.82 173.558 132.293 172.811 132.64C172.065 132.973 171.231 133.14 170.311 133.14C169.245 133.14 168.298 132.913 167.471 132.46C166.658 132.007 166.018 131.353 165.551 130.5C165.085 129.647 164.851 128.64 164.851 127.48C164.851 126.333 165.085 125.333 165.551 124.48C166.018 123.627 166.658 122.973 167.471 122.52C168.298 122.067 169.245 121.84 170.311 121.84C171.391 121.84 172.331 122.067 173.131 122.52C173.945 122.96 174.565 123.573 174.991 124.36C175.431 125.133 175.651 126 175.651 126.96ZM173.351 126.9C173.378 126.18 173.251 125.58 172.971 125.1C172.705 124.607 172.331 124.247 171.851 124.02C171.385 123.78 170.871 123.66 170.311 123.66C169.418 123.66 168.671 123.933 168.071 124.48C167.471 125.027 167.145 125.833 167.091 126.9H173.351ZM184.013 121.8C185.293 121.8 186.319 122.213 187.093 123.04C187.866 123.867 188.253 125.047 188.253 126.58V133H185.973V126.82C185.973 125.833 185.719 125.073 185.213 124.54C184.706 123.993 184.013 123.72 183.133 123.72C182.226 123.72 181.499 124.013 180.953 124.6C180.406 125.173 180.133 126.02 180.133 127.14V133H177.853V121.98H180.133V124.4C180.426 123.573 180.919 122.933 181.613 122.48C182.306 122.027 183.106 121.8 184.013 121.8ZM196.459 131.02V133H195.059C193.886 133 192.992 132.72 192.379 132.16C191.779 131.587 191.479 130.64 191.479 129.32V123.92H189.899V121.98H191.479V119.24H193.779V121.98H196.439V123.92H193.779V129.36C193.779 129.987 193.892 130.42 194.119 130.66C194.359 130.9 194.772 131.02 195.359 131.02H196.459ZM202.215 121.84C203.508 121.84 204.542 122.173 205.315 122.84C206.102 123.493 206.582 124.373 206.755 125.48H204.595C204.502 124.88 204.242 124.4 203.815 124.04C203.402 123.667 202.848 123.48 202.155 123.48C201.582 123.48 201.135 123.62 200.815 123.9C200.508 124.167 200.355 124.533 200.355 125C200.355 125.347 200.468 125.627 200.695 125.84C200.922 126.053 201.202 126.22 201.535 126.34C201.882 126.46 202.368 126.593 202.995 126.74C203.822 126.927 204.488 127.12 204.995 127.32C205.515 127.52 205.955 127.84 206.315 128.28C206.688 128.707 206.875 129.293 206.875 130.04C206.875 130.96 206.522 131.707 205.815 132.28C205.122 132.853 204.182 133.14 202.995 133.14C201.622 133.14 200.508 132.82 199.655 132.18C198.815 131.54 198.308 130.647 198.135 129.5H200.355C200.422 130.1 200.688 130.587 201.155 130.96C201.622 131.333 202.235 131.52 202.995 131.52C203.542 131.52 203.968 131.38 204.275 131.1C204.595 130.807 204.755 130.44 204.755 130C204.755 129.613 204.635 129.307 204.395 129.08C204.155 128.853 203.855 128.68 203.495 128.56C203.135 128.427 202.642 128.293 202.015 128.16C201.215 127.973 200.562 127.787 200.055 127.6C199.562 127.413 199.135 127.113 198.775 126.7C198.428 126.273 198.255 125.7 198.255 124.98C198.255 124.047 198.602 123.293 199.295 122.72C200.002 122.133 200.975 121.84 202.215 121.84Z" fill="black"/>
<path d="M36.172 165.098C35.528 165.098 34.9493 164.986 34.436 164.762C33.932 164.529 33.5353 164.211 33.246 163.81C32.9567 163.399 32.8073 162.928 32.798 162.396H34.156C34.2027 162.853 34.3893 163.241 34.716 163.558C35.052 163.866 35.5373 164.02 36.172 164.02C36.7787 164.02 37.2547 163.871 37.6 163.572C37.9547 163.264 38.132 162.872 38.132 162.396C38.132 162.023 38.0293 161.719 37.824 161.486C37.6187 161.253 37.362 161.075 37.054 160.954C36.746 160.833 36.3307 160.702 35.808 160.562C35.164 160.394 34.646 160.226 34.254 160.058C33.8713 159.89 33.54 159.629 33.26 159.274C32.9893 158.91 32.854 158.425 32.854 157.818C32.854 157.286 32.9893 156.815 33.26 156.404C33.5307 155.993 33.9087 155.676 34.394 155.452C34.8887 155.228 35.4533 155.116 36.088 155.116C37.0027 155.116 37.7493 155.345 38.328 155.802C38.916 156.259 39.2473 156.866 39.322 157.622H37.922C37.8753 157.249 37.6793 156.922 37.334 156.642C36.9887 156.353 36.5313 156.208 35.962 156.208C35.43 156.208 34.996 156.348 34.66 156.628C34.324 156.899 34.156 157.281 34.156 157.776C34.156 158.131 34.254 158.42 34.45 158.644C34.6553 158.868 34.9027 159.041 35.192 159.162C35.4907 159.274 35.906 159.405 36.438 159.554C37.082 159.731 37.6 159.909 37.992 160.086C38.384 160.254 38.72 160.52 39 160.884C39.28 161.239 39.42 161.724 39.42 162.34C39.42 162.816 39.294 163.264 39.042 163.684C38.79 164.104 38.4167 164.445 37.922 164.706C37.4273 164.967 36.844 165.098 36.172 165.098ZM48.2948 160.87C48.2948 161.113 48.2808 161.369 48.2528 161.64H42.1208C42.1675 162.396 42.4241 162.989 42.8908 163.418C43.3668 163.838 43.9408 164.048 44.6128 164.048C45.1635 164.048 45.6208 163.922 45.9848 163.67C46.3581 163.409 46.6195 163.063 46.7688 162.634H48.1408C47.9355 163.371 47.5248 163.973 46.9088 164.44C46.2928 164.897 45.5275 165.126 44.6128 165.126C43.8848 165.126 43.2315 164.963 42.6528 164.636C42.0835 164.309 41.6355 163.847 41.3088 163.25C40.9821 162.643 40.8188 161.943 40.8188 161.15C40.8188 160.357 40.9775 159.661 41.2948 159.064C41.6121 158.467 42.0555 158.009 42.6248 157.692C43.2035 157.365 43.8661 157.202 44.6128 157.202C45.3408 157.202 45.9848 157.361 46.5448 157.678C47.1048 157.995 47.5341 158.434 47.8328 158.994C48.1408 159.545 48.2948 160.17 48.2948 160.87ZM46.9788 160.604C46.9788 160.119 46.8715 159.703 46.6568 159.358C46.4421 159.003 46.1481 158.737 45.7748 158.56C45.4108 158.373 45.0048 158.28 44.5568 158.28C43.9128 158.28 43.3621 158.485 42.9048 158.896C42.4568 159.307 42.2001 159.876 42.1348 160.604H46.9788ZM49.5004 161.15C49.5004 160.357 49.6591 159.666 49.9764 159.078C50.2938 158.481 50.7324 158.019 51.2924 157.692C51.8618 157.365 52.5104 157.202 53.2384 157.202C54.1811 157.202 54.9558 157.431 55.5624 157.888C56.1784 158.345 56.5844 158.98 56.7804 159.792H55.4084C55.2778 159.325 55.0211 158.957 54.6384 158.686C54.2651 158.415 53.7984 158.28 53.2384 158.28C52.5104 158.28 51.9224 158.532 51.4744 159.036C51.0264 159.531 50.8024 160.235 50.8024 161.15C50.8024 162.074 51.0264 162.788 51.4744 163.292C51.9224 163.796 52.5104 164.048 53.2384 164.048C53.7984 164.048 54.2651 163.917 54.6384 163.656C55.0118 163.395 55.2684 163.021 55.4084 162.536H56.7804C56.5751 163.32 56.1644 163.95 55.5484 164.426C54.9324 164.893 54.1624 165.126 53.2384 165.126C52.5104 165.126 51.8618 164.963 51.2924 164.636C50.7324 164.309 50.2938 163.847 49.9764 163.25C49.6591 162.653 49.5004 161.953 49.5004 161.15ZM65.2843 157.328V165H64.0103V163.866C63.7677 164.258 63.427 164.566 62.9883 164.79C62.559 165.005 62.083 165.112 61.5603 165.112C60.963 165.112 60.4263 164.991 59.9503 164.748C59.4743 164.496 59.0963 164.123 58.8163 163.628C58.5457 163.133 58.4103 162.531 58.4103 161.822V157.328H59.6703V161.654C59.6703 162.41 59.8617 162.993 60.2443 163.404C60.627 163.805 61.1497 164.006 61.8123 164.006C62.4937 164.006 63.0303 163.796 63.4223 163.376C63.8143 162.956 64.0103 162.345 64.0103 161.542V157.328H65.2843ZM68.7094 158.574C68.9334 158.135 69.2508 157.795 69.6614 157.552C70.0814 157.309 70.5901 157.188 71.1874 157.188V158.504H70.8514C69.4234 158.504 68.7094 159.279 68.7094 160.828V165H67.4354V157.328H68.7094V158.574ZM79.6581 160.87C79.6581 161.113 79.6441 161.369 79.6161 161.64H73.4841C73.5307 162.396 73.7874 162.989 74.2541 163.418C74.7301 163.838 75.3041 164.048 75.9761 164.048C76.5267 164.048 76.9841 163.922 77.3481 163.67C77.7214 163.409 77.9827 163.063 78.1321 162.634H79.5041C79.2987 163.371 78.8881 163.973 78.2721 164.44C77.6561 164.897 76.8907 165.126 75.9761 165.126C75.2481 165.126 74.5947 164.963 74.0161 164.636C73.4467 164.309 72.9987 163.847 72.6721 163.25C72.3454 162.643 72.1821 161.943 72.1821 161.15C72.1821 160.357 72.3407 159.661 72.6581 159.064C72.9754 158.467 73.4187 158.009 73.9881 157.692C74.5667 157.365 75.2294 157.202 75.9761 157.202C76.7041 157.202 77.3481 157.361 77.9081 157.678C78.4681 157.995 78.8974 158.434 79.1961 158.994C79.5041 159.545 79.6581 160.17 79.6581 160.87ZM78.3421 160.604C78.3421 160.119 78.2347 159.703 78.0201 159.358C77.8054 159.003 77.5114 158.737 77.1381 158.56C76.7741 158.373 76.3681 158.28 75.9201 158.28C75.2761 158.28 74.7254 158.485 74.2681 158.896C73.8201 159.307 73.5634 159.876 73.4981 160.604H78.3421ZM80.8637 161.136C80.8637 160.352 81.0224 159.666 81.3397 159.078C81.6571 158.481 82.0911 158.019 82.6417 157.692C83.2017 157.365 83.8271 157.202 84.5177 157.202C85.1151 157.202 85.6704 157.342 86.1837 157.622C86.6971 157.893 87.0891 158.252 87.3597 158.7V154.64H88.6477V165H87.3597V163.558C87.1077 164.015 86.7344 164.393 86.2397 164.692C85.7451 164.981 85.1664 165.126 84.5037 165.126C83.8224 165.126 83.2017 164.958 82.6417 164.622C82.0911 164.286 81.6571 163.815 81.3397 163.208C81.0224 162.601 80.8637 161.911 80.8637 161.136ZM87.3597 161.15C87.3597 160.571 87.2431 160.067 87.0097 159.638C86.7764 159.209 86.4591 158.882 86.0577 158.658C85.6657 158.425 85.2317 158.308 84.7557 158.308C84.2797 158.308 83.8457 158.42 83.4537 158.644C83.0617 158.868 82.7491 159.195 82.5157 159.624C82.2824 160.053 82.1657 160.557 82.1657 161.136C82.1657 161.724 82.2824 162.237 82.5157 162.676C82.7491 163.105 83.0617 163.437 83.4537 163.67C83.8457 163.894 84.2797 164.006 84.7557 164.006C85.2317 164.006 85.6657 163.894 86.0577 163.67C86.4591 163.437 86.7764 163.105 87.0097 162.676C87.2431 162.237 87.3597 161.729 87.3597 161.15ZM95.8071 158.756C96.0684 158.299 96.4511 157.925 96.9551 157.636C97.4591 157.347 98.0331 157.202 98.6771 157.202C99.3677 157.202 99.9884 157.365 100.539 157.692C101.09 158.019 101.524 158.481 101.841 159.078C102.158 159.666 102.317 160.352 102.317 161.136C102.317 161.911 102.158 162.601 101.841 163.208C101.524 163.815 101.085 164.286 100.525 164.622C99.9744 164.958 99.3584 165.126 98.6771 165.126C98.0144 165.126 97.4311 164.981 96.9271 164.692C96.4324 164.403 96.0591 164.034 95.8071 163.586V165H94.5331V154.64H95.8071V158.756ZM101.015 161.136C101.015 160.557 100.898 160.053 100.665 159.624C100.432 159.195 100.114 158.868 99.7131 158.644C99.3211 158.42 98.8871 158.308 98.4111 158.308C97.9444 158.308 97.5104 158.425 97.1091 158.658C96.7171 158.882 96.3997 159.213 96.1571 159.652C95.9237 160.081 95.8071 160.581 95.8071 161.15C95.8071 161.729 95.9237 162.237 96.1571 162.676C96.3997 163.105 96.7171 163.437 97.1091 163.67C97.5104 163.894 97.9444 164.006 98.4111 164.006C98.8871 164.006 99.3211 163.894 99.7131 163.67C100.114 163.437 100.432 163.105 100.665 162.676C100.898 162.237 101.015 161.724 101.015 161.136ZM110.602 157.328L105.982 168.612H104.666L106.178 164.916L103.084 157.328H104.498L106.906 163.544L109.286 157.328H110.602ZM118.709 165.098C118.065 165.098 117.486 164.986 116.973 164.762C116.469 164.529 116.072 164.211 115.783 163.81C115.494 163.399 115.344 162.928 115.335 162.396H116.693C116.74 162.853 116.926 163.241 117.253 163.558C117.589 163.866 118.074 164.02 118.709 164.02C119.316 164.02 119.792 163.871 120.137 163.572C120.492 163.264 120.669 162.872 120.669 162.396C120.669 162.023 120.566 161.719 120.361 161.486C120.156 161.253 119.899 161.075 119.591 160.954C119.283 160.833 118.868 160.702 118.345 160.562C117.701 160.394 117.183 160.226 116.791 160.058C116.408 159.89 116.077 159.629 115.797 159.274C115.526 158.91 115.391 158.425 115.391 157.818C115.391 157.286 115.526 156.815 115.797 156.404C116.068 155.993 116.446 155.676 116.931 155.452C117.426 155.228 117.99 155.116 118.625 155.116C119.54 155.116 120.286 155.345 120.865 155.802C121.453 156.259 121.784 156.866 121.859 157.622H120.459C120.412 157.249 120.216 156.922 119.871 156.642C119.526 156.353 119.068 156.208 118.499 156.208C117.967 156.208 117.533 156.348 117.197 156.628C116.861 156.899 116.693 157.281 116.693 157.776C116.693 158.131 116.791 158.42 116.987 158.644C117.192 158.868 117.44 159.041 117.729 159.162C118.028 159.274 118.443 159.405 118.975 159.554C119.619 159.731 120.137 159.909 120.529 160.086C120.921 160.254 121.257 160.52 121.537 160.884C121.817 161.239 121.957 161.724 121.957 162.34C121.957 162.816 121.831 163.264 121.579 163.684C121.327 164.104 120.954 164.445 120.459 164.706C119.964 164.967 119.381 165.098 118.709 165.098ZM125.386 158.378V162.9C125.386 163.273 125.465 163.539 125.624 163.698C125.783 163.847 126.058 163.922 126.45 163.922H127.388V165H126.24C125.531 165 124.999 164.837 124.644 164.51C124.289 164.183 124.112 163.647 124.112 162.9V158.378H123.118V157.328H124.112V155.396H125.386V157.328H127.388V158.378H125.386ZM130.206 158.574C130.43 158.135 130.747 157.795 131.158 157.552C131.578 157.309 132.086 157.188 132.684 157.188V158.504H132.348C130.92 158.504 130.206 159.279 130.206 160.828V165H128.932V157.328H130.206V158.574ZM134.812 156.082C134.57 156.082 134.364 155.998 134.196 155.83C134.028 155.662 133.944 155.457 133.944 155.214C133.944 154.971 134.028 154.766 134.196 154.598C134.364 154.43 134.57 154.346 134.812 154.346C135.046 154.346 135.242 154.43 135.4 154.598C135.568 154.766 135.652 154.971 135.652 155.214C135.652 155.457 135.568 155.662 135.4 155.83C135.242 155.998 135.046 156.082 134.812 156.082ZM135.428 157.328V165H134.154V157.328H135.428ZM138.873 158.742C139.125 158.303 139.499 157.939 139.993 157.65C140.497 157.351 141.081 157.202 141.743 157.202C142.425 157.202 143.041 157.365 143.591 157.692C144.151 158.019 144.59 158.481 144.907 159.078C145.225 159.666 145.383 160.352 145.383 161.136C145.383 161.911 145.225 162.601 144.907 163.208C144.59 163.815 144.151 164.286 143.591 164.622C143.041 164.958 142.425 165.126 141.743 165.126C141.09 165.126 140.511 164.981 140.007 164.692C139.513 164.393 139.135 164.025 138.873 163.586V168.64H137.599V157.328H138.873V158.742ZM144.081 161.136C144.081 160.557 143.965 160.053 143.731 159.624C143.498 159.195 143.181 158.868 142.779 158.644C142.387 158.42 141.953 158.308 141.477 158.308C141.011 158.308 140.577 158.425 140.175 158.658C139.783 158.882 139.466 159.213 139.223 159.652C138.99 160.081 138.873 160.581 138.873 161.15C138.873 161.729 138.99 162.237 139.223 162.676C139.466 163.105 139.783 163.437 140.175 163.67C140.577 163.894 141.011 164.006 141.477 164.006C141.953 164.006 142.387 163.894 142.779 163.67C143.181 163.437 143.498 163.105 143.731 162.676C143.965 162.237 144.081 161.724 144.081 161.136ZM154.06 160.87C154.06 161.113 154.046 161.369 154.018 161.64H147.886C147.933 162.396 148.19 162.989 148.656 163.418C149.132 163.838 149.706 164.048 150.378 164.048C150.929 164.048 151.386 163.922 151.75 163.67C152.124 163.409 152.385 163.063 152.534 162.634H153.906C153.701 163.371 153.29 163.973 152.674 164.44C152.058 164.897 151.293 165.126 150.378 165.126C149.65 165.126 148.997 164.963 148.418 164.636C147.849 164.309 147.401 163.847 147.074 163.25C146.748 162.643 146.584 161.943 146.584 161.15C146.584 160.357 146.743 159.661 147.06 159.064C147.378 158.467 147.821 158.009 148.39 157.692C148.969 157.365 149.632 157.202 150.378 157.202C151.106 157.202 151.75 157.361 152.31 157.678C152.87 157.995 153.3 158.434 153.598 158.994C153.906 159.545 154.06 160.17 154.06 160.87ZM152.744 160.604C152.744 160.119 152.637 159.703 152.422 159.358C152.208 159.003 151.914 158.737 151.54 158.56C151.176 158.373 150.77 158.28 150.322 158.28C149.678 158.28 149.128 158.485 148.67 158.896C148.222 159.307 147.966 159.876 147.9 160.604H152.744Z" fill="#191919"/>
</svg>
