<svg width="542" height="650" viewBox="0 0 542 650" fill="none" xmlns="http://www.w3.org/2000/svg">
<path d="M14.1797 180.125C14.1797 179.266 14.4661 178.478 15.0391 177.762C15.612 176.974 16.2207 176.329 16.8652 175.828C17.0085 177.833 17.653 179.409 18.7988 180.555C19.9447 181.629 21.5202 182.166 23.5254 182.166C25.3158 182.166 27.3568 181.844 29.6484 181.199C31.9401 180.555 34.0527 179.624 35.9863 178.406C37.9915 177.189 39.6387 175.721 40.9277 174.002C42.2884 172.212 42.9688 170.242 42.9688 168.094C42.9688 165.516 41.9661 163.439 39.9609 161.863C37.9557 160.288 35.4134 158.963 32.334 157.889C29.2546 156.743 25.9245 155.669 22.3438 154.666C18.763 153.663 15.4329 152.446 12.3535 151.014C9.3457 149.581 6.80339 147.791 4.72656 145.643C2.72135 143.494 1.71875 140.701 1.71875 137.264C1.0026 135.258 1.21745 133.253 2.36328 131.248C3.58073 129.171 5.26367 127.238 7.41211 125.447C9.63216 123.657 12.1745 121.974 15.0391 120.398C17.9036 118.823 20.6608 117.534 23.3105 116.531C26.0319 115.529 28.4668 114.777 30.6152 114.275C32.7637 113.774 34.2318 113.667 35.0195 113.953C35.8073 114.24 35.6999 114.956 34.6973 116.102C33.7663 117.247 31.5462 118.895 28.0371 121.043C27.5358 121.043 27.0345 121.007 26.5332 120.936C26.0319 120.864 25.7096 120.506 25.5664 119.861C23.9909 120.434 22.1289 121.329 19.9805 122.547C17.832 123.764 15.7552 125.197 13.75 126.844C11.8164 128.419 10.1693 130.174 8.80859 132.107C7.44792 133.969 6.76758 135.831 6.76758 137.693C6.76758 140.63 7.77018 142.957 9.77539 144.676C11.8522 146.323 14.3945 147.755 17.4023 148.973C20.4818 150.118 23.8118 151.193 27.3926 152.195C30.9733 153.126 34.3034 154.272 37.3828 155.633C40.4622 156.922 43.0046 158.641 45.0098 160.789C47.015 162.866 48.0176 165.623 48.0176 169.061C48.0176 170.994 47.5521 172.785 46.6211 174.432C45.6901 176.007 44.4727 177.475 42.9688 178.836C41.4648 180.125 39.7461 181.271 37.8125 182.273C35.8789 183.276 33.8737 184.135 31.7969 184.852C29.7917 185.568 27.7865 186.105 25.7812 186.463C23.8477 186.821 22.1289 187 20.625 187C19.9089 187 19.1569 186.785 18.3691 186.355C17.653 185.854 16.9727 185.245 16.3281 184.529C15.7552 183.813 15.2539 183.061 14.8242 182.273C14.3945 181.486 14.1797 180.77 14.1797 180.125ZM62.6699 138.123C63.0996 138.123 63.5651 138.266 64.0664 138.553C64.6393 138.839 64.9974 139.233 65.1406 139.734L72.6602 177.01C73.5195 178.299 74.1283 179.337 74.4863 180.125C74.916 180.913 75.1309 181.951 75.1309 183.24C75.1309 183.885 75.0234 184.708 74.8086 185.711C74.5938 186.642 74.0924 187.107 73.3047 187.107H72.875C72.7318 187.107 72.6602 187.072 72.6602 187C72.5169 186.928 72.3021 186.785 72.0156 186.57L70.4043 184.959C70.1895 184.744 70.082 184.601 70.082 184.529L62.6699 142.098V138.123ZM60.8438 114.061C62.4193 114.061 63.5651 114.275 64.2812 114.705C65.069 115.063 65.4629 115.994 65.4629 117.498C65.4629 117.999 65.4271 118.608 65.3555 119.324C65.2839 120.04 64.8542 120.506 64.0664 120.721C62.6341 120.148 61.7389 119.217 61.3809 117.928C61.0228 116.639 60.8438 115.35 60.8438 114.061ZM93.543 139.734C93.6862 140.594 93.8652 141.382 94.0801 142.098C94.1517 142.814 94.2591 143.53 94.4023 144.246C94.5456 144.891 94.6888 145.464 94.832 145.965V147.039C94.9036 147.469 94.9753 148.113 95.0469 148.973C95.1185 149.76 95.2259 150.62 95.3691 151.551C95.584 152.41 95.7272 153.27 95.7988 154.129C95.9421 154.988 96.0495 155.561 96.1211 155.848C96.3359 154.487 96.694 153.019 97.1953 151.443C97.7682 149.796 98.4486 148.328 99.2363 147.039C100.096 145.678 101.098 144.533 102.244 143.602C103.462 142.599 104.965 142.098 106.756 142.098H107.293C109.083 143.602 110.623 145.177 111.912 146.824C113.273 148.471 114.454 150.226 115.457 152.088C116.46 153.95 117.391 155.919 118.25 157.996C119.109 160.073 120.005 162.293 120.936 164.656H122.225C122.511 162.651 123.012 160.288 123.729 157.566C124.445 154.773 125.411 152.16 126.629 149.725C127.918 147.218 129.458 145.105 131.248 143.387C133.11 141.668 135.33 140.809 137.908 140.809C139.269 140.809 140.594 141.525 141.883 142.957C143.172 144.318 144.389 146.144 145.535 148.436C146.753 150.656 147.827 153.126 148.758 155.848C149.76 158.497 150.584 161.147 151.229 163.797C151.873 166.375 152.374 168.738 152.732 170.887C153.162 173.035 153.377 174.682 153.377 175.828C153.377 176.544 153.234 177.153 152.947 177.654C152.732 178.156 152.231 178.406 151.443 178.406C150.656 178.406 150.047 177.941 149.617 177.01C149.474 176.437 149.223 175.577 148.865 174.432C148.579 173.286 148.257 171.961 147.898 170.457C147.54 168.953 147.111 167.413 146.609 165.838C146.18 164.191 145.75 162.651 145.32 161.219C144.891 159.715 144.497 158.39 144.139 157.244C143.781 156.098 143.53 155.239 143.387 154.666C143.172 153.95 142.814 153.09 142.312 152.088C141.883 151.085 141.346 150.118 140.701 149.188C140.057 148.257 139.34 147.469 138.553 146.824C137.765 146.18 136.87 145.857 135.867 145.857C134.22 145.857 132.788 146.681 131.57 148.328C130.353 149.975 129.314 151.909 128.455 154.129C127.667 156.349 127.059 158.569 126.629 160.789C126.271 163.009 126.056 164.692 125.984 165.838C125.984 166.339 125.949 167.234 125.877 168.523C125.877 169.812 125.877 171.209 125.877 172.713C125.877 174.217 125.877 175.613 125.877 176.902C125.949 178.191 125.984 179.087 125.984 179.588C125.483 180.161 125.018 180.734 124.588 181.307C124.158 181.808 123.549 182.059 122.762 182.059C122.404 182.059 122.046 181.987 121.688 181.844C121.401 181.629 121.15 181.271 120.936 180.77C120.864 180.197 120.649 179.266 120.291 177.977C120.005 176.688 119.646 175.327 119.217 173.895C118.787 172.462 118.393 171.102 118.035 169.812C117.677 168.523 117.426 167.628 117.283 167.127C117.14 166.769 116.782 165.981 116.209 164.764C115.708 163.546 115.135 162.221 114.49 160.789C113.846 159.285 113.201 157.853 112.557 156.492C111.912 155.132 111.411 154.093 111.053 153.377C110.265 151.945 109.477 150.763 108.689 149.832C107.973 148.829 106.792 148.328 105.145 148.328C104.285 148.328 103.497 148.65 102.781 149.295C102.137 149.939 101.564 150.727 101.062 151.658C100.633 152.589 100.311 153.556 100.096 154.559C99.9525 155.561 99.8809 156.421 99.8809 157.137V184.529C99.8809 185.245 99.7018 185.854 99.3438 186.355C99.0573 186.857 98.5918 187.107 97.9473 187.107C97.5892 187.107 97.1953 187.036 96.7656 186.893C96.3359 186.678 96.1211 186.284 96.1211 185.711L89.7832 139.734H93.543ZM169.641 129.1C170.214 129.1 170.858 129.171 171.574 129.314C172.29 129.458 172.935 129.744 173.508 130.174C174.081 130.532 174.51 131.033 174.797 131.678C175.155 132.322 175.191 133.146 174.904 134.148C175.191 134.077 175.62 134.005 176.193 133.934C176.766 133.79 177.375 133.647 178.02 133.504C178.736 133.361 179.38 133.253 179.953 133.182C180.526 133.038 180.92 132.931 181.135 132.859H181.672C184.68 132.859 187.723 133.361 190.803 134.363C193.882 135.294 196.639 136.655 199.074 138.445C201.509 140.236 203.514 142.42 205.09 144.998C206.737 147.576 207.561 150.477 207.561 153.699C207.561 157.28 206.737 160.574 205.09 163.582C203.443 166.518 201.294 169.061 198.645 171.209C196.066 173.357 193.13 175.04 189.836 176.258C186.613 177.475 183.391 178.084 180.168 178.084C180.168 180.161 180.347 182.238 180.705 184.314C181.135 186.32 181.529 188.289 181.887 190.223C182.316 192.228 182.71 194.197 183.068 196.131C183.498 198.136 183.713 200.105 183.713 202.039C183.713 202.612 183.498 203.077 183.068 203.436C182.71 203.794 182.245 203.973 181.672 203.973C181.027 203.973 180.49 203.686 180.061 203.113C179.702 202.54 179.416 201.896 179.201 201.18C179.058 200.464 178.915 199.747 178.771 199.031C178.7 198.387 178.664 197.921 178.664 197.635C178.521 196.632 178.27 195.021 177.912 192.801C177.626 190.652 177.268 188.253 176.838 185.604C176.408 182.882 175.943 180.053 175.441 177.117C175.012 174.109 174.582 171.245 174.152 168.523C173.794 165.802 173.436 163.403 173.078 161.326C172.792 159.178 172.577 157.602 172.434 156.6L169.641 129.1ZM174.797 143.494V144.568C174.797 144.926 174.797 145.356 174.797 145.857C174.868 146.287 174.904 146.681 174.904 147.039V147.791C175.048 149.008 175.227 150.477 175.441 152.195C175.656 153.914 175.907 155.74 176.193 157.674C176.48 159.536 176.766 161.434 177.053 163.367C177.339 165.301 177.59 167.055 177.805 168.631C178.02 170.135 178.199 171.388 178.342 172.391C178.485 173.393 178.592 173.93 178.664 174.002C181.529 174.646 184.429 174.503 187.365 173.572C190.301 172.57 192.951 171.03 195.314 168.953C197.678 166.805 199.647 164.334 201.223 161.541C202.798 158.748 203.622 155.883 203.693 152.947C203.693 150.298 203.049 148.042 201.76 146.18C200.542 144.246 198.967 142.671 197.033 141.453C195.1 140.164 192.915 139.233 190.48 138.66C188.117 138.016 185.754 137.693 183.391 137.693C182.245 137.693 181.135 137.765 180.061 137.908C179.058 138.051 178.163 138.302 177.375 138.66C176.587 139.018 175.943 139.591 175.441 140.379C175.012 141.167 174.797 142.205 174.797 143.494ZM227.691 184.529C227.62 182.667 227.441 179.803 227.154 175.936C226.868 171.997 226.546 167.592 226.188 162.723C225.901 157.781 225.579 152.625 225.221 147.254C224.934 141.811 224.612 136.619 224.254 131.678C223.967 126.736 223.645 122.332 223.287 118.465C223.001 114.526 222.822 111.626 222.75 109.764V108.367C222.75 106.72 223.574 105.896 225.221 105.896C225.364 105.896 225.579 105.932 225.865 106.004C226.152 106.004 226.367 106.004 226.51 106.004C226.939 112.234 227.333 118.214 227.691 123.943C228.049 129.673 228.408 135.366 228.766 141.023C229.124 146.681 229.518 152.374 229.947 158.104C230.377 163.761 230.878 169.669 231.451 175.828C232.239 176.616 232.669 177.547 232.74 178.621C232.812 179.624 232.848 180.662 232.848 181.736C232.848 182.238 232.812 182.811 232.74 183.455C232.74 184.028 232.633 184.601 232.418 185.174C232.203 185.675 231.845 186.141 231.344 186.57C230.914 186.928 230.341 187.107 229.625 187.107C228.98 187.107 228.515 186.857 228.229 186.355C228.014 185.854 227.835 185.245 227.691 184.529ZM251.689 162.078C250.042 163.081 248.359 163.868 246.641 164.441C244.922 164.943 243.525 164.585 242.451 163.367C242.451 162.007 242.917 161.111 243.848 160.682C244.779 160.18 245.817 159.786 246.963 159.5C248.18 159.214 249.362 158.855 250.508 158.426C251.725 157.996 252.549 157.137 252.979 155.848C253.408 154.415 253.802 152.697 254.16 150.691C254.518 148.686 255.02 146.753 255.664 144.891C256.309 143.029 257.24 141.489 258.457 140.271C259.674 138.982 261.357 138.338 263.506 138.338C264.723 138.338 266.227 138.768 268.018 139.627C269.88 140.415 271.634 141.382 273.281 142.527C274.928 143.673 276.325 144.891 277.471 146.18C278.617 147.469 279.189 148.65 279.189 149.725C279.189 150.226 279.118 150.691 278.975 151.121C278.903 151.551 278.545 151.909 277.9 152.195L256.738 159.5L256.631 160.037C256.631 160.324 256.595 160.717 256.523 161.219V162.508C256.523 163.009 256.523 163.367 256.523 163.582C256.523 165.014 256.631 166.805 256.846 168.953C257.061 171.03 257.49 173.071 258.135 175.076C258.851 177.01 259.818 178.693 261.035 180.125C262.253 181.557 263.9 182.273 265.977 182.273C266.764 182.273 267.409 182.13 267.91 181.844C268.483 181.486 269.02 181.128 269.521 180.77C270.094 180.34 270.632 179.982 271.133 179.695C271.706 179.337 272.35 179.158 273.066 179.158C273.066 180.232 272.816 181.271 272.314 182.273C271.885 183.204 271.276 184.028 270.488 184.744C269.701 185.46 268.805 186.033 267.803 186.463C266.8 186.893 265.798 187.107 264.795 187.107C262.074 187.107 259.889 186.176 258.242 184.314C256.595 182.381 255.306 180.089 254.375 177.439C253.516 174.718 252.907 171.961 252.549 169.168C252.191 166.303 251.904 163.94 251.689 162.078ZM264.795 143.064C263.506 143.064 262.396 143.423 261.465 144.139C260.605 144.855 259.889 145.75 259.316 146.824C258.743 147.898 258.314 149.08 258.027 150.369C257.812 151.587 257.705 152.697 257.705 153.699C258.851 153.699 260.104 153.628 261.465 153.484C262.897 153.341 264.294 153.055 265.654 152.625C267.015 152.195 268.232 151.658 269.307 151.014C270.452 150.298 271.24 149.438 271.67 148.436C270.596 146.717 269.593 145.392 268.662 144.461C267.731 143.53 266.442 143.064 264.795 143.064ZM295.023 182.596C295.023 181.378 295.346 180.34 295.99 179.48C296.635 178.621 297.566 178.191 298.783 178.191C299.929 178.191 300.86 178.406 301.576 178.836C302.364 179.266 302.758 180.125 302.758 181.414C302.758 182.846 302.257 184.171 301.254 185.389C300.323 186.606 299.105 187.215 297.602 187.215C297.029 187.215 296.563 187.072 296.205 186.785C295.847 186.427 295.561 186.033 295.346 185.604C295.202 185.102 295.095 184.601 295.023 184.1C295.023 183.527 295.023 183.025 295.023 182.596ZM6.23047 337.127C6.15885 335.981 6.01562 334.298 5.80078 332.078C5.58594 329.786 5.33529 327.208 5.04883 324.344C4.83398 321.479 4.58333 318.471 4.29688 315.32C4.08203 312.169 3.83138 309.161 3.54492 306.297C3.33008 303.432 3.11523 300.854 2.90039 298.562C2.68555 296.271 2.54232 294.588 2.4707 293.514C2.4707 293.37 2.4349 292.977 2.36328 292.332C2.36328 291.616 2.36328 291.15 2.36328 290.936H6.23047C6.30208 291.867 6.3737 293.335 6.44531 295.34C6.58854 297.273 6.73177 299.458 6.875 301.893C7.08984 304.327 7.26888 306.941 7.41211 309.734C7.55534 312.456 7.69857 315.034 7.8418 317.469C8.05664 319.904 8.23568 322.124 8.37891 324.129C8.52214 326.062 8.62956 327.495 8.70117 328.426C8.91602 330.574 9.23828 333.045 9.66797 335.838C10.1693 338.631 10.9928 341.245 12.1387 343.68C13.2845 346.043 14.7526 348.048 16.543 349.695C18.3333 351.342 20.625 352.166 23.418 352.166C25.7812 352.166 27.8223 351.414 29.541 349.91C31.3314 348.406 32.8353 346.473 34.0527 344.109C35.2702 341.674 36.237 338.989 36.9531 336.053C37.7409 333.117 38.3496 330.252 38.7793 327.459C39.2806 324.594 39.6029 321.98 39.7461 319.617C39.9609 317.182 40.0684 315.285 40.0684 313.924C40.0684 310.343 39.7819 306.977 39.209 303.826C38.7077 300.604 38.457 297.345 38.457 294.051C38.457 293.263 38.7077 292.762 39.209 292.547C39.7819 292.26 40.3906 292.117 41.0352 292.117C41.1784 292.117 41.3932 292.153 41.6797 292.225C41.9661 292.225 42.181 292.225 42.3242 292.225C42.7539 293.8 43.0404 295.232 43.1836 296.521C43.3268 297.739 43.4342 298.921 43.5059 300.066C43.6491 301.212 43.7207 302.394 43.7207 303.611V307.586C43.7207 309.663 43.6491 312.348 43.5059 315.643C43.4342 318.865 43.1836 322.303 42.7539 325.955C42.3242 329.607 41.6439 333.296 40.7129 337.02C39.8535 340.672 38.6361 344.002 37.0605 347.01C35.5566 350.018 33.5872 352.452 31.1523 354.314C28.7891 356.176 25.9245 357.107 22.5586 357.107C20.0521 357.107 17.832 356.499 15.8984 355.281C13.9648 353.992 12.3177 352.381 10.957 350.447C9.66797 348.514 8.59375 346.365 7.73438 344.002C6.94661 341.639 6.44531 339.347 6.23047 337.127ZM60.7363 317.039C60.7363 316.609 60.7363 316.108 60.7363 315.535C60.8079 314.962 60.8796 314.425 60.9512 313.924C61.0944 313.351 61.3451 312.885 61.7031 312.527C62.0612 312.169 62.5625 311.99 63.207 311.99C63.3503 311.99 63.5651 312.026 63.8516 312.098C64.2096 312.098 64.4603 312.098 64.6035 312.098C64.6751 317.182 64.9258 322.41 65.3555 327.781C65.8568 333.152 66.8236 338.344 68.2559 343.357C68.3275 342.57 68.5065 341.245 68.793 339.383C69.151 337.449 69.5091 335.444 69.8672 333.367C70.2969 331.219 70.6908 329.214 71.0488 327.352C71.4785 325.49 71.765 324.165 71.9082 323.377C72.4095 321.873 73.0898 320.333 73.9492 318.758C74.8086 317.111 75.847 315.607 77.0645 314.246C78.3535 312.885 79.75 311.775 81.2539 310.916C82.8294 310.057 84.4766 309.627 86.1953 309.627C89.0599 309.627 91.6022 310.271 93.8223 311.561C96.0423 312.85 98.0117 314.568 99.7305 316.717C101.521 318.794 103.025 321.193 104.242 323.914C105.46 326.564 106.462 329.285 107.25 332.078C108.038 334.871 108.611 337.557 108.969 340.135C109.327 342.713 109.506 345.005 109.506 347.01V348.299C109.506 348.729 109.434 349.158 109.291 349.588C109.219 349.946 109.04 350.268 108.754 350.555C108.539 350.77 108.109 350.877 107.465 350.877C106.749 350.877 106.14 350.447 105.639 349.588C105.567 347.798 105.352 345.721 104.994 343.357C104.708 340.994 104.278 338.523 103.705 335.945C103.204 333.296 102.488 330.717 101.557 328.211C100.697 325.633 99.5872 323.341 98.2266 321.336C96.9375 319.331 95.3978 317.719 93.6074 316.502C91.8171 315.213 89.6686 314.568 87.1621 314.568C85.1569 314.568 83.4023 314.926 81.8984 315.643C80.4661 316.359 79.2487 317.361 78.2461 318.65C77.2435 319.868 76.4199 321.336 75.7754 323.055C75.2025 324.702 74.7728 326.492 74.4863 328.426C74.2715 329.428 73.985 331.219 73.627 333.797C73.2689 336.375 72.875 339.132 72.4453 342.068C72.0156 345.005 71.6217 347.762 71.2637 350.34C70.9772 352.918 70.7982 354.708 70.7266 355.711C70.5117 356.427 70.1178 356.857 69.5449 357C69.0436 357.143 68.5065 357.215 67.9336 357.215C67.862 357.215 67.6829 357.179 67.3965 357.107C67.11 357.107 66.9668 357.072 66.9668 357L60.8438 319.725C60.8438 319.581 60.8079 319.188 60.7363 318.543C60.7363 317.898 60.7363 317.397 60.7363 317.039ZM124.695 308.123C125.125 308.123 125.59 308.266 126.092 308.553C126.665 308.839 127.023 309.233 127.166 309.734L134.686 347.01C135.545 348.299 136.154 349.337 136.512 350.125C136.941 350.913 137.156 351.951 137.156 353.24C137.156 353.885 137.049 354.708 136.834 355.711C136.619 356.642 136.118 357.107 135.33 357.107H134.9C134.757 357.107 134.686 357.072 134.686 357C134.542 356.928 134.327 356.785 134.041 356.57L132.43 354.959C132.215 354.744 132.107 354.601 132.107 354.529L124.695 312.098V308.123ZM122.869 284.061C124.445 284.061 125.59 284.275 126.307 284.705C127.094 285.063 127.488 285.994 127.488 287.498C127.488 287.999 127.452 288.608 127.381 289.324C127.309 290.04 126.88 290.506 126.092 290.721C124.66 290.148 123.764 289.217 123.406 287.928C123.048 286.639 122.869 285.35 122.869 284.061ZM181.35 334.656V333.475C181.35 332.902 181.314 332.329 181.242 331.756C181.242 331.111 181.242 330.538 181.242 330.037V328.963C179.38 331.541 177.626 334.37 175.979 337.449C174.403 340.457 172.648 343.286 170.715 345.936C168.781 348.514 166.597 350.698 164.162 352.488C161.727 354.279 158.827 355.21 155.461 355.281C154.96 355.281 154.387 355.245 153.742 355.174C153.098 355.102 152.704 354.673 152.561 353.885C151.988 352.452 151.988 350.411 152.561 347.762C153.133 345.112 154.064 342.212 155.354 339.061C156.714 335.91 158.29 332.723 160.08 329.5C161.942 326.277 163.84 323.305 165.773 320.584C167.707 317.863 169.569 315.607 171.359 313.816C173.221 311.954 174.833 310.88 176.193 310.594C176.265 310.594 176.444 310.701 176.73 310.916C177.017 311.059 177.303 311.274 177.59 311.561C177.876 311.847 178.127 312.098 178.342 312.312C178.557 312.527 178.664 312.671 178.664 312.742C176.158 315.177 173.615 317.827 171.037 320.691C168.459 323.556 166.132 326.6 164.055 329.822C161.978 332.973 160.259 336.268 158.898 339.705C157.609 343.071 156.965 346.473 156.965 349.91C158.898 349.91 160.796 349.158 162.658 347.654C164.52 346.15 166.311 344.217 168.029 341.854C169.748 339.419 171.359 336.733 172.863 333.797C174.439 330.861 175.835 327.924 177.053 324.988C178.342 322.052 179.416 319.295 180.275 316.717C181.206 314.139 181.887 311.99 182.316 310.271C182.46 310.2 182.674 309.985 182.961 309.627C183.247 309.269 183.462 309.09 183.605 309.09C183.892 309.09 184.214 309.197 184.572 309.412C185.002 309.555 185.432 309.77 185.861 310.057C186.291 310.343 186.649 310.701 186.936 311.131C187.222 311.489 187.365 311.811 187.365 312.098V312.742C186.936 314.891 186.542 317.97 186.184 321.98C185.826 325.919 185.467 330.359 185.109 335.301C184.823 340.171 184.536 345.327 184.25 350.77C184.035 356.141 183.82 361.333 183.605 366.346C183.391 371.359 183.176 375.942 182.961 380.096C182.746 384.249 182.531 387.544 182.316 389.979C182.316 390.838 182.388 391.876 182.531 393.094C182.674 394.311 182.674 395.493 182.531 396.639C182.388 397.785 181.994 398.751 181.35 399.539C180.777 400.398 179.81 400.828 178.449 400.828C178.449 395.242 178.592 389.692 178.879 384.178C179.165 378.663 179.488 373.149 179.846 367.635C180.204 362.192 180.526 356.749 180.812 351.307C181.171 345.792 181.35 340.242 181.35 334.656ZM215.123 357C213.762 357.501 212.509 357.394 211.363 356.678C210.289 355.89 209.322 354.744 208.463 353.24C207.604 351.665 206.852 349.91 206.207 347.977C205.562 345.971 205.061 344.002 204.703 342.068C204.345 340.135 204.094 338.38 203.951 336.805C203.88 335.229 203.915 334.083 204.059 333.367C204.059 332.651 204.094 331.541 204.166 330.037C204.238 328.533 204.309 326.85 204.381 324.988C204.452 323.055 204.524 321.085 204.596 319.08C204.739 317.003 204.846 314.998 204.918 313.064C204.99 311.131 205.061 309.448 205.133 308.016C205.204 306.512 205.24 305.402 205.24 304.686C205.383 304.686 205.491 304.65 205.562 304.578L205.885 304.471C206.601 304.471 207.21 304.793 207.711 305.438C208.212 306.082 208.642 306.691 209 307.264C209 308.266 208.964 310.057 208.893 312.635C208.893 315.213 208.893 317.97 208.893 320.906C208.893 323.842 208.893 326.635 208.893 329.285C208.964 331.863 209 333.654 209 334.656C209.072 335.516 209.215 336.876 209.43 338.738C209.716 340.529 210.074 342.391 210.504 344.324C210.934 346.186 211.507 347.905 212.223 349.48C213.01 350.984 213.977 351.844 215.123 352.059C218.131 352.059 220.637 350.949 222.643 348.729C224.719 346.508 226.438 343.715 227.799 340.35C229.16 336.984 230.234 333.367 231.021 329.5C231.881 325.561 232.597 321.873 233.17 318.436C233.743 314.998 234.244 312.133 234.674 309.842C235.175 307.479 235.748 306.189 236.393 305.975L238.971 306.512L244.986 348.084C245.416 348.299 245.774 348.621 246.061 349.051C246.347 349.48 246.598 349.946 246.812 350.447C247.099 350.949 247.278 351.45 247.35 351.951C247.493 352.452 247.564 352.811 247.564 353.025C247.421 353.527 246.992 354.064 246.275 354.637C245.559 355.21 244.951 355.532 244.449 355.604H244.02C243.948 355.604 243.876 355.604 243.805 355.604C243.661 355.389 243.447 355.066 243.16 354.637C242.945 354.135 242.695 353.634 242.408 353.133C242.122 352.632 241.871 352.13 241.656 351.629C241.513 351.056 241.406 350.698 241.334 350.555C241.119 349.839 240.868 348.729 240.582 347.225C240.367 345.721 240.152 344.074 239.938 342.283C239.723 340.421 239.508 338.488 239.293 336.482C239.15 334.406 238.971 332.436 238.756 330.574C238.613 328.641 238.434 326.958 238.219 325.525C238.076 324.021 237.896 322.911 237.682 322.195C237.324 323.842 236.822 325.812 236.178 328.104C235.533 330.324 234.71 332.687 233.707 335.193C232.776 337.7 231.702 340.171 230.484 342.605C229.267 344.969 227.87 347.189 226.295 349.266C224.791 351.271 223.108 352.99 221.246 354.422C219.384 355.783 217.343 356.642 215.123 357ZM266.299 332.078C264.652 333.081 262.969 333.868 261.25 334.441C259.531 334.943 258.135 334.585 257.061 333.367C257.061 332.007 257.526 331.111 258.457 330.682C259.388 330.18 260.426 329.786 261.572 329.5C262.79 329.214 263.971 328.855 265.117 328.426C266.335 327.996 267.158 327.137 267.588 325.848C268.018 324.415 268.411 322.697 268.77 320.691C269.128 318.686 269.629 316.753 270.273 314.891C270.918 313.029 271.849 311.489 273.066 310.271C274.284 308.982 275.967 308.338 278.115 308.338C279.333 308.338 280.837 308.768 282.627 309.627C284.489 310.415 286.243 311.382 287.891 312.527C289.538 313.673 290.934 314.891 292.08 316.18C293.226 317.469 293.799 318.65 293.799 319.725C293.799 320.226 293.727 320.691 293.584 321.121C293.512 321.551 293.154 321.909 292.51 322.195L271.348 329.5L271.24 330.037C271.24 330.324 271.204 330.717 271.133 331.219V332.508C271.133 333.009 271.133 333.367 271.133 333.582C271.133 335.014 271.24 336.805 271.455 338.953C271.67 341.03 272.1 343.071 272.744 345.076C273.46 347.01 274.427 348.693 275.645 350.125C276.862 351.557 278.509 352.273 280.586 352.273C281.374 352.273 282.018 352.13 282.52 351.844C283.092 351.486 283.63 351.128 284.131 350.77C284.704 350.34 285.241 349.982 285.742 349.695C286.315 349.337 286.96 349.158 287.676 349.158C287.676 350.232 287.425 351.271 286.924 352.273C286.494 353.204 285.885 354.028 285.098 354.744C284.31 355.46 283.415 356.033 282.412 356.463C281.41 356.893 280.407 357.107 279.404 357.107C276.683 357.107 274.499 356.176 272.852 354.314C271.204 352.381 269.915 350.089 268.984 347.439C268.125 344.718 267.516 341.961 267.158 339.168C266.8 336.303 266.514 333.94 266.299 332.078ZM279.404 313.064C278.115 313.064 277.005 313.423 276.074 314.139C275.215 314.855 274.499 315.75 273.926 316.824C273.353 317.898 272.923 319.08 272.637 320.369C272.422 321.587 272.314 322.697 272.314 323.699C273.46 323.699 274.714 323.628 276.074 323.484C277.507 323.341 278.903 323.055 280.264 322.625C281.624 322.195 282.842 321.658 283.916 321.014C285.062 320.298 285.85 319.438 286.279 318.436C285.205 316.717 284.202 315.392 283.271 314.461C282.34 313.53 281.051 313.064 279.404 313.064ZM309.633 352.596C309.633 351.378 309.955 350.34 310.6 349.48C311.244 348.621 312.175 348.191 313.393 348.191C314.538 348.191 315.469 348.406 316.186 348.836C316.973 349.266 317.367 350.125 317.367 351.414C317.367 352.846 316.866 354.171 315.863 355.389C314.932 356.606 313.715 357.215 312.211 357.215C311.638 357.215 311.173 357.072 310.814 356.785C310.456 356.427 310.17 356.033 309.955 355.604C309.812 355.102 309.704 354.601 309.633 354.1C309.633 353.527 309.633 353.025 309.633 352.596ZM20.9473 522.629C20.9473 521.984 20.9831 521.34 21.0547 520.695C21.1979 519.979 21.6276 519.514 22.3438 519.299C22.6302 519.943 22.9525 520.66 23.3105 521.447C23.7402 522.163 24.2415 522.701 24.8145 523.059H25.6738C26.1751 523.059 26.6406 523.094 27.0703 523.166C27.5 523.166 27.9297 523.166 28.3594 523.166H29.2188C31.6536 523.166 34.0885 522.772 36.5234 521.984C39.0299 521.125 41.25 519.908 43.1836 518.332C45.1888 516.757 46.8001 514.895 48.0176 512.746C49.235 510.598 49.8438 508.163 49.8438 505.441C49.8438 502.72 49.1276 500.357 47.6953 498.352C46.3346 496.275 44.5443 494.592 42.3242 493.303C40.1758 491.942 37.8125 490.939 35.2344 490.295C32.6562 489.65 30.2214 489.328 27.9297 489.328C27.6432 489.328 26.9271 489.364 25.7812 489.436C24.707 489.507 23.5254 489.65 22.2363 489.865C21.0189 490.008 19.9089 490.259 18.9062 490.617C17.9036 490.904 17.4023 491.298 17.4023 491.799V513.068C17.4023 513.57 17.1517 513.928 16.6504 514.143C16.2207 514.286 15.8626 514.357 15.5762 514.357C15.0749 514.357 14.6094 513.892 14.1797 512.961C13.75 511.958 13.3919 510.741 13.1055 509.309C12.819 507.805 12.5684 506.158 12.3535 504.367C12.1387 502.577 11.9238 500.858 11.709 499.211C11.5658 497.492 11.4583 495.988 11.3867 494.699C11.3151 493.41 11.2435 492.443 11.1719 491.799V480.734C11.1003 479.875 10.957 478.407 10.7422 476.33C10.5273 474.182 10.2767 471.926 9.99023 469.562C9.77539 467.128 9.52474 464.872 9.23828 462.795C9.02344 460.646 8.8444 459.143 8.70117 458.283C8.91602 456.994 8.70117 456.242 8.05664 456.027C7.48372 455.812 6.76758 455.741 5.9082 455.812C5.04883 455.812 4.22526 455.777 3.4375 455.705C2.72135 455.562 2.36328 454.953 2.36328 453.879V453.557C2.36328 453.485 2.39909 453.378 2.4707 453.234L8.70117 447.004H9.3457C9.84701 447.004 10.4199 447.004 11.0645 447.004C11.709 446.932 12.3535 446.896 12.998 446.896H14.7168C16.8652 446.896 19.4076 446.968 22.3438 447.111C25.2799 447.255 28.0371 447.72 30.6152 448.508C33.1934 449.224 35.3776 450.441 37.168 452.16C39.0299 453.879 39.9609 456.314 39.9609 459.465C39.9609 461.9 39.4238 464.263 38.3496 466.555C37.347 468.846 36.0938 471.066 34.5898 473.215C33.0859 475.292 31.4388 477.297 29.6484 479.23C27.9297 481.164 26.3184 482.883 24.8145 484.387C28.1087 484.745 31.4746 485.282 34.9121 485.998C38.3496 486.643 41.4648 487.788 44.2578 489.436C47.0508 491.011 49.3066 493.088 51.0254 495.666C52.8158 498.244 53.7109 501.574 53.7109 505.656C53.7109 508.879 52.8874 511.887 51.2402 514.68C49.6647 517.401 47.6237 519.764 45.1172 521.77C42.6107 523.703 39.7819 525.243 36.6309 526.389C33.5514 527.535 30.472 528.107 27.3926 528.107C26.6048 528.107 25.8171 527.964 25.0293 527.678C24.3132 527.391 23.6328 526.997 22.9883 526.496C22.4154 525.923 21.9141 525.314 21.4844 524.67C21.1263 524.025 20.9473 523.345 20.9473 522.629ZM16.1133 484.387C18.2617 483.671 20.4818 482.417 22.7734 480.627C25.1367 478.837 27.321 476.796 29.3262 474.504C31.3314 472.141 32.9785 469.634 34.2676 466.984C35.5566 464.335 36.2012 461.828 36.2012 459.465C36.2012 457.46 35.485 455.956 34.0527 454.953C32.6921 453.879 31.0807 453.127 29.2188 452.697C27.4284 452.268 25.5664 452.053 23.6328 452.053C21.6992 451.981 20.1953 451.945 19.1211 451.945H17.6172C17.0443 451.945 16.4355 451.981 15.791 452.053C15.2181 452.053 14.7168 452.089 14.2871 452.16C13.929 452.16 13.7142 452.16 13.6426 452.16L12.4609 454.523L16.1133 484.387ZM74.5938 503.078C72.9466 504.081 71.2637 504.868 69.5449 505.441C67.8262 505.943 66.4297 505.585 65.3555 504.367C65.3555 503.007 65.821 502.111 66.752 501.682C67.6829 501.18 68.7214 500.786 69.8672 500.5C71.0846 500.214 72.2663 499.855 73.4121 499.426C74.6296 498.996 75.4531 498.137 75.8828 496.848C76.3125 495.415 76.7064 493.697 77.0645 491.691C77.4225 489.686 77.9238 487.753 78.5684 485.891C79.2129 484.029 80.1439 482.489 81.3613 481.271C82.5788 479.982 84.2617 479.338 86.4102 479.338C87.6276 479.338 89.1315 479.768 90.9219 480.627C92.7839 481.415 94.5384 482.382 96.1855 483.527C97.8327 484.673 99.2292 485.891 100.375 487.18C101.521 488.469 102.094 489.65 102.094 490.725C102.094 491.226 102.022 491.691 101.879 492.121C101.807 492.551 101.449 492.909 100.805 493.195L79.6426 500.5L79.5352 501.037C79.5352 501.324 79.4993 501.717 79.4277 502.219V503.508C79.4277 504.009 79.4277 504.367 79.4277 504.582C79.4277 506.014 79.5352 507.805 79.75 509.953C79.9648 512.03 80.3945 514.071 81.0391 516.076C81.7552 518.01 82.722 519.693 83.9395 521.125C85.1569 522.557 86.804 523.273 88.8809 523.273C89.6686 523.273 90.3132 523.13 90.8145 522.844C91.3874 522.486 91.9245 522.128 92.4258 521.77C92.9987 521.34 93.5358 520.982 94.0371 520.695C94.61 520.337 95.2546 520.158 95.9707 520.158C95.9707 521.232 95.7201 522.271 95.2188 523.273C94.7891 524.204 94.1803 525.028 93.3926 525.744C92.6048 526.46 91.7096 527.033 90.707 527.463C89.7044 527.893 88.7018 528.107 87.6992 528.107C84.9779 528.107 82.7936 527.176 81.1465 525.314C79.4993 523.381 78.2103 521.089 77.2793 518.439C76.4199 515.718 75.8112 512.961 75.4531 510.168C75.0951 507.303 74.8086 504.94 74.5938 503.078ZM87.6992 484.064C86.4102 484.064 85.3001 484.423 84.3691 485.139C83.5098 485.855 82.7936 486.75 82.2207 487.824C81.6478 488.898 81.2181 490.08 80.9316 491.369C80.7168 492.587 80.6094 493.697 80.6094 494.699C81.7552 494.699 83.0085 494.628 84.3691 494.484C85.8014 494.341 87.1979 494.055 88.5586 493.625C89.9193 493.195 91.1367 492.658 92.2109 492.014C93.3568 491.298 94.1445 490.438 94.5742 489.436C93.5 487.717 92.4974 486.392 91.5664 485.461C90.6354 484.53 89.3464 484.064 87.6992 484.064ZM138.66 494.377C137.085 494.377 135.509 494.592 133.934 495.021C132.358 495.451 130.783 495.917 129.207 496.418C127.703 496.848 126.163 497.277 124.588 497.707C123.084 498.065 121.508 498.244 119.861 498.244C118.93 498.244 118.178 498.065 117.605 497.707C117.033 497.349 116.746 496.633 116.746 495.559C116.746 494.699 116.961 494.126 117.391 493.84C117.892 493.482 118.465 493.303 119.109 493.303C119.826 493.231 120.542 493.231 121.258 493.303C122.046 493.374 122.654 493.339 123.084 493.195C123.657 493.052 124.695 492.801 126.199 492.443C127.775 492.085 129.422 491.727 131.141 491.369C132.859 491.011 134.471 490.653 135.975 490.295C137.55 489.937 138.624 489.65 139.197 489.436C139.197 489.221 139.197 488.863 139.197 488.361C139.269 487.788 139.305 487.215 139.305 486.643C139.376 485.998 139.412 485.425 139.412 484.924V483.742C139.412 481.594 139.269 479.517 138.982 477.512C138.696 475.435 138.374 473.358 138.016 471.281C137.729 469.204 137.443 467.128 137.156 465.051C136.87 462.974 136.727 460.897 136.727 458.82C136.727 458.104 136.798 457.424 136.941 456.779C137.156 456.063 137.729 455.705 138.66 455.705C139.018 455.705 139.376 455.812 139.734 456.027C140.164 456.171 140.415 456.493 140.486 456.994L144.246 488.039C144.318 488.111 144.389 488.146 144.461 488.146H144.783C145.499 488.146 146.609 487.967 148.113 487.609C149.617 487.251 151.3 486.822 153.162 486.32C155.024 485.819 156.993 485.282 159.07 484.709C161.219 484.136 163.26 483.635 165.193 483.205C167.127 482.704 168.882 482.346 170.457 482.131C172.033 481.844 173.25 481.809 174.109 482.023C174.396 482.095 174.861 482.453 175.506 483.098C176.15 483.671 176.544 484.1 176.688 484.387C176.831 485.103 176.222 485.819 174.861 486.535C173.501 487.18 171.71 487.824 169.49 488.469C167.342 489.042 164.943 489.579 162.293 490.08C159.643 490.581 157.101 491.047 154.666 491.477C152.303 491.835 150.262 492.193 148.543 492.551C146.824 492.837 145.786 493.052 145.428 493.195V495.344C145.428 496.275 145.392 497.313 145.32 498.459C145.32 499.533 145.32 500.572 145.32 501.574V503.723C145.32 507.375 145.571 510.956 146.072 514.465C146.574 517.902 146.824 521.376 146.824 524.885C146.824 525.386 146.681 525.816 146.395 526.174C146.108 526.46 145.75 526.747 145.32 527.033C144.891 527.248 144.461 527.463 144.031 527.678C143.602 527.821 143.279 527.928 143.064 528C142.492 524.921 142.062 522.128 141.775 519.621C141.561 517.043 141.382 514.501 141.238 511.994C141.167 509.488 141.059 506.838 140.916 504.045C140.844 501.18 140.701 497.958 140.486 494.377H138.66ZM201.867 494.377C200.292 494.377 198.716 494.592 197.141 495.021C195.565 495.451 193.99 495.917 192.414 496.418C190.91 496.848 189.37 497.277 187.795 497.707C186.291 498.065 184.715 498.244 183.068 498.244C182.137 498.244 181.385 498.065 180.812 497.707C180.24 497.349 179.953 496.633 179.953 495.559C179.953 494.699 180.168 494.126 180.598 493.84C181.099 493.482 181.672 493.303 182.316 493.303C183.033 493.231 183.749 493.231 184.465 493.303C185.253 493.374 185.861 493.339 186.291 493.195C186.864 493.052 187.902 492.801 189.406 492.443C190.982 492.085 192.629 491.727 194.348 491.369C196.066 491.011 197.678 490.653 199.182 490.295C200.757 489.937 201.831 489.65 202.404 489.436C202.404 489.221 202.404 488.863 202.404 488.361C202.476 487.788 202.512 487.215 202.512 486.643C202.583 485.998 202.619 485.425 202.619 484.924V483.742C202.619 481.594 202.476 479.517 202.189 477.512C201.903 475.435 201.581 473.358 201.223 471.281C200.936 469.204 200.65 467.128 200.363 465.051C200.077 462.974 199.934 460.897 199.934 458.82C199.934 458.104 200.005 457.424 200.148 456.779C200.363 456.063 200.936 455.705 201.867 455.705C202.225 455.705 202.583 455.812 202.941 456.027C203.371 456.171 203.622 456.493 203.693 456.994L207.453 488.039C207.525 488.111 207.596 488.146 207.668 488.146H207.99C208.706 488.146 209.816 487.967 211.32 487.609C212.824 487.251 214.507 486.822 216.369 486.32C218.231 485.819 220.201 485.282 222.277 484.709C224.426 484.136 226.467 483.635 228.4 483.205C230.334 482.704 232.089 482.346 233.664 482.131C235.24 481.844 236.457 481.809 237.316 482.023C237.603 482.095 238.068 482.453 238.713 483.098C239.357 483.671 239.751 484.1 239.895 484.387C240.038 485.103 239.429 485.819 238.068 486.535C236.708 487.18 234.917 487.824 232.697 488.469C230.549 489.042 228.15 489.579 225.5 490.08C222.85 490.581 220.308 491.047 217.873 491.477C215.51 491.835 213.469 492.193 211.75 492.551C210.031 492.837 208.993 493.052 208.635 493.195V495.344C208.635 496.275 208.599 497.313 208.527 498.459C208.527 499.533 208.527 500.572 208.527 501.574V503.723C208.527 507.375 208.778 510.956 209.279 514.465C209.781 517.902 210.031 521.376 210.031 524.885C210.031 525.386 209.888 525.816 209.602 526.174C209.315 526.46 208.957 526.747 208.527 527.033C208.098 527.248 207.668 527.463 207.238 527.678C206.809 527.821 206.486 527.928 206.271 528C205.699 524.921 205.269 522.128 204.982 519.621C204.768 517.043 204.589 514.501 204.445 511.994C204.374 509.488 204.266 506.838 204.123 504.045C204.051 501.18 203.908 497.958 203.693 494.377H201.867ZM248.209 503.078C246.562 504.081 244.879 504.868 243.16 505.441C241.441 505.943 240.045 505.585 238.971 504.367C238.971 503.007 239.436 502.111 240.367 501.682C241.298 501.18 242.337 500.786 243.482 500.5C244.7 500.214 245.882 499.855 247.027 499.426C248.245 498.996 249.068 498.137 249.498 496.848C249.928 495.415 250.322 493.697 250.68 491.691C251.038 489.686 251.539 487.753 252.184 485.891C252.828 484.029 253.759 482.489 254.977 481.271C256.194 479.982 257.877 479.338 260.025 479.338C261.243 479.338 262.747 479.768 264.537 480.627C266.399 481.415 268.154 482.382 269.801 483.527C271.448 484.673 272.844 485.891 273.99 487.18C275.136 488.469 275.709 489.65 275.709 490.725C275.709 491.226 275.637 491.691 275.494 492.121C275.423 492.551 275.064 492.909 274.42 493.195L253.258 500.5L253.15 501.037C253.15 501.324 253.115 501.717 253.043 502.219V503.508C253.043 504.009 253.043 504.367 253.043 504.582C253.043 506.014 253.15 507.805 253.365 509.953C253.58 512.03 254.01 514.071 254.654 516.076C255.37 518.01 256.337 519.693 257.555 521.125C258.772 522.557 260.419 523.273 262.496 523.273C263.284 523.273 263.928 523.13 264.43 522.844C265.003 522.486 265.54 522.128 266.041 521.77C266.614 521.34 267.151 520.982 267.652 520.695C268.225 520.337 268.87 520.158 269.586 520.158C269.586 521.232 269.335 522.271 268.834 523.273C268.404 524.204 267.796 525.028 267.008 525.744C266.22 526.46 265.325 527.033 264.322 527.463C263.32 527.893 262.317 528.107 261.314 528.107C258.593 528.107 256.409 527.176 254.762 525.314C253.115 523.381 251.826 521.089 250.895 518.439C250.035 515.718 249.426 512.961 249.068 510.168C248.71 507.303 248.424 504.94 248.209 503.078ZM261.314 484.064C260.025 484.064 258.915 484.423 257.984 485.139C257.125 485.855 256.409 486.75 255.836 487.824C255.263 488.898 254.833 490.08 254.547 491.369C254.332 492.587 254.225 493.697 254.225 494.699C255.37 494.699 256.624 494.628 257.984 494.484C259.417 494.341 260.813 494.055 262.174 493.625C263.535 493.195 264.752 492.658 265.826 492.014C266.972 491.298 267.76 490.438 268.189 489.436C267.115 487.717 266.113 486.392 265.182 485.461C264.251 484.53 262.962 484.064 261.314 484.064ZM293.477 486.965L299.814 513.068H301.104C301.318 510.777 301.712 508.342 302.285 505.764C302.93 503.186 303.789 500.643 304.863 498.137C305.938 495.559 307.191 493.088 308.623 490.725C310.127 488.361 311.81 486.285 313.672 484.494C315.534 482.704 317.611 481.271 319.902 480.197C322.266 479.123 324.844 478.586 327.637 478.586C327.637 480.305 326.921 481.809 325.488 483.098C324.128 484.387 322.48 485.64 320.547 486.857C318.613 488.075 316.608 489.364 314.531 490.725C312.526 492.085 310.951 493.732 309.805 495.666C308.587 497.6 307.585 499.855 306.797 502.434C306.081 504.94 305.472 507.554 304.971 510.275C304.541 512.925 304.219 515.611 304.004 518.332C303.789 520.982 303.61 523.381 303.467 525.529C303.037 526.174 302.572 526.783 302.07 527.355C301.641 527.857 301.068 528.107 300.352 528.107C300.065 528.107 299.707 528.036 299.277 527.893C298.848 527.678 298.561 527.284 298.418 526.711L290.684 486.965H293.477ZM341.752 523.596C341.752 522.378 342.074 521.34 342.719 520.48C343.363 519.621 344.294 519.191 345.512 519.191C346.658 519.191 347.589 519.406 348.305 519.836C349.092 520.266 349.486 521.125 349.486 522.414C349.486 523.846 348.985 525.171 347.982 526.389C347.051 527.606 345.834 528.215 344.33 528.215C343.757 528.215 343.292 528.072 342.934 527.785C342.576 527.427 342.289 527.033 342.074 526.604C341.931 526.102 341.824 525.601 341.752 525.1C341.752 524.527 341.752 524.025 341.752 523.596Z" fill="black"/>
</svg>
