<svg width="262" height="220" viewBox="0 0 262 220" fill="none" xmlns="http://www.w3.org/2000/svg">
<rect width="262" height="220" fill="#CFCFCF"/>
<path d="M74 86V82.7081C74 81.0725 73.0042 79.6017 71.4856 78.9942L67.4173 77.3669C65.4857 76.5943 63.2844 77.4312 62.354 79.292L62 80C62 80 57 79 53 75C49 71 48 66 48 66L48.708 65.646C50.5688 64.7156 51.4057 62.5143 50.6331 60.5827L49.0058 56.5144C48.3983 54.9958 46.9275 54 45.2919 54H42C39.7909 54 38 55.7909 38 58C38 75.6731 52.3269 90 70 90C72.2091 90 74 88.2091 74 86Z" stroke="black" stroke-width="2.5" stroke-linejoin="round"/>
<path d="M32.8 131.22C34.96 129.74 36.6867 128.293 37.98 126.88C39.2867 125.453 39.94 124.133 39.94 122.92C39.94 122.2 39.76 121.627 39.4 121.2C39.0533 120.773 38.4867 120.56 37.7 120.56C36.8867 120.56 36.2733 120.827 35.86 121.36C35.4467 121.88 35.2133 122.627 35.16 123.6H32.94C33.0333 121.987 33.5267 120.753 34.42 119.9C35.3267 119.047 36.48 118.62 37.88 118.62C39.2533 118.62 40.3267 118.987 41.1 119.72C41.8867 120.44 42.28 121.44 42.28 122.72C42.28 123.747 41.96 124.787 41.32 125.84C40.6933 126.893 39.8933 127.867 38.92 128.76C37.9467 129.64 36.94 130.4 35.9 131.04H42.6V132.9H32.8V131.22ZM44.0477 129.96V128.04L51.0677 118.76H53.5077V127.96H55.4877V129.96H53.5077V133H51.2077V129.96H44.0477ZM51.3677 121.48L46.4077 127.96H51.3677V121.48ZM63.683 114.12L58.243 136.52H56.023L61.463 114.12H63.683ZM73.2216 120.52L67.9616 133H65.5616L70.9016 120.78H63.9016V118.8H73.2216V120.52ZM89.0858 129.24C89.0858 129.933 88.9191 130.58 88.5858 131.18C88.2524 131.767 87.7458 132.24 87.0658 132.6C86.3858 132.96 85.5524 133.14 84.5658 133.14C83.6058 133.14 82.7458 132.973 81.9858 132.64C81.2258 132.293 80.6191 131.813 80.1658 131.2C79.7124 130.587 79.4524 129.88 79.3858 129.08H81.8258C81.8924 129.693 82.1524 130.22 82.6058 130.66C83.0724 131.1 83.6924 131.32 84.4658 131.32C85.1591 131.32 85.6924 131.133 86.0658 130.76C86.4524 130.387 86.6458 129.907 86.6458 129.32C86.6458 128.813 86.5058 128.4 86.2258 128.08C85.9458 127.747 85.5991 127.487 85.1858 127.3C84.7724 127.113 84.2058 126.9 83.4858 126.66C82.6058 126.38 81.8858 126.1 81.3258 125.82C80.7791 125.54 80.3124 125.133 79.9258 124.6C79.5391 124.067 79.3458 123.367 79.3458 122.5C79.3458 121.74 79.5324 121.073 79.9058 120.5C80.2791 119.927 80.8124 119.487 81.5058 119.18C82.1991 118.86 82.9991 118.7 83.9058 118.7C85.3458 118.7 86.4858 119.047 87.3258 119.74C88.1791 120.433 88.6658 121.34 88.7858 122.46H86.3258C86.2324 121.927 85.9791 121.473 85.5658 121.1C85.1658 120.713 84.6124 120.52 83.9058 120.52C83.2658 120.52 82.7524 120.687 82.3658 121.02C81.9791 121.34 81.7858 121.807 81.7858 122.42C81.7858 122.9 81.9191 123.3 82.1858 123.62C82.4524 123.927 82.7858 124.173 83.1858 124.36C83.5991 124.533 84.1591 124.74 84.8658 124.98C85.7591 125.26 86.4858 125.547 87.0458 125.84C87.6191 126.12 88.0991 126.533 88.4858 127.08C88.8858 127.627 89.0858 128.347 89.0858 129.24ZM101.528 121.98V133H99.2283V130.6C98.9483 131.413 98.4616 132.047 97.7683 132.5C97.0749 132.94 96.2683 133.16 95.3483 133.16C94.0683 133.16 93.0416 132.747 92.2683 131.92C91.4949 131.093 91.1083 129.913 91.1083 128.38V121.98H93.3883V128.14C93.3883 129.14 93.6416 129.913 94.1483 130.46C94.6549 130.993 95.3483 131.26 96.2283 131.26C97.1349 131.26 97.8616 130.967 98.4083 130.38C98.9549 129.793 99.2283 128.94 99.2283 127.82V121.98H101.528ZM110.579 121.84C111.539 121.84 112.392 122.067 113.139 122.52C113.899 122.973 114.492 123.627 114.919 124.48C115.346 125.333 115.559 126.333 115.559 127.48C115.559 128.64 115.346 129.647 114.919 130.5C114.492 131.353 113.899 132.007 113.139 132.46C112.392 132.913 111.539 133.14 110.579 133.14C109.579 133.14 108.726 132.893 108.019 132.4C107.312 131.907 106.819 131.253 106.539 130.44V138.24H104.259V121.98H106.539V124.54C106.819 123.727 107.312 123.073 108.019 122.58C108.726 122.087 109.579 121.84 110.579 121.84ZM109.879 123.84C109.239 123.84 108.666 123.993 108.159 124.3C107.652 124.593 107.252 125.02 106.959 125.58C106.666 126.127 106.519 126.76 106.519 127.48C106.519 128.213 106.666 128.853 106.959 129.4C107.252 129.947 107.652 130.373 108.159 130.68C108.666 130.973 109.239 131.12 109.879 131.12C110.892 131.12 111.706 130.8 112.319 130.16C112.932 129.507 113.239 128.613 113.239 127.48C113.239 126.36 112.932 125.473 112.319 124.82C111.706 124.167 110.892 123.84 109.879 123.84ZM124.075 121.84C125.035 121.84 125.888 122.067 126.635 122.52C127.395 122.973 127.988 123.627 128.415 124.48C128.842 125.333 129.055 126.333 129.055 127.48C129.055 128.64 128.842 129.647 128.415 130.5C127.988 131.353 127.395 132.007 126.635 132.46C125.888 132.913 125.035 133.14 124.075 133.14C123.075 133.14 122.222 132.893 121.515 132.4C120.808 131.907 120.315 131.253 120.035 130.44V138.24H117.755V121.98H120.035V124.54C120.315 123.727 120.808 123.073 121.515 122.58C122.222 122.087 123.075 121.84 124.075 121.84ZM123.375 123.84C122.735 123.84 122.162 123.993 121.655 124.3C121.148 124.593 120.748 125.02 120.455 125.58C120.162 126.127 120.015 126.76 120.015 127.48C120.015 128.213 120.162 128.853 120.455 129.4C120.748 129.947 121.148 130.373 121.655 130.68C122.162 130.973 122.735 131.12 123.375 131.12C124.388 131.12 125.202 130.8 125.815 130.16C126.428 129.507 126.735 128.613 126.735 127.48C126.735 126.36 126.428 125.473 125.815 124.82C125.202 124.167 124.388 123.84 123.375 123.84ZM136.291 121.84C137.358 121.84 138.318 122.067 139.171 122.52C140.024 122.973 140.691 123.627 141.171 124.48C141.651 125.333 141.891 126.333 141.891 127.48C141.891 128.64 141.651 129.647 141.171 130.5C140.691 131.353 140.024 132.007 139.171 132.46C138.318 132.913 137.358 133.14 136.291 133.14C135.224 133.14 134.264 132.913 133.411 132.46C132.571 132.007 131.904 131.353 131.411 130.5C130.931 129.633 130.691 128.627 130.691 127.48C130.691 126.333 130.931 125.333 131.411 124.48C131.904 123.627 132.571 122.973 133.411 122.52C134.264 122.067 135.224 121.84 136.291 121.84ZM136.291 123.82C135.704 123.82 135.164 123.953 134.671 124.22C134.178 124.487 133.778 124.9 133.471 125.46C133.178 126.007 133.031 126.68 133.031 127.48C133.031 128.293 133.178 128.973 133.471 129.52C133.778 130.067 134.178 130.473 134.671 130.74C135.164 131.007 135.704 131.14 136.291 131.14C136.878 131.14 137.418 131.007 137.911 130.74C138.404 130.473 138.798 130.067 139.091 129.52C139.398 128.973 139.551 128.293 139.551 127.48C139.551 126.68 139.398 126.007 139.091 125.46C138.798 124.9 138.404 124.487 137.911 124.22C137.418 123.953 136.878 123.82 136.291 123.82ZM146.363 124.14C146.736 123.42 147.27 122.853 147.963 122.44C148.656 122.013 149.456 121.8 150.363 121.8V124.28H149.683C148.683 124.28 147.876 124.527 147.263 125.02C146.663 125.5 146.363 126.3 146.363 127.42V133H144.083V121.98H146.363V124.14ZM157.611 131.02V133H156.211C155.038 133 154.145 132.72 153.531 132.16C152.931 131.587 152.631 130.64 152.631 129.32V123.92H151.051V121.98H152.631V119.24H154.931V121.98H157.591V123.92H154.931V129.36C154.931 129.987 155.045 130.42 155.271 130.66C155.511 130.9 155.925 131.02 156.511 131.02H157.611Z" fill="black"/>
<path d="M39.602 158.098C39.602 158.91 39.322 159.587 38.762 160.128C38.2113 160.66 37.3667 160.926 36.228 160.926H34.352V165H33.078V155.242H36.228C37.3293 155.242 38.1647 155.508 38.734 156.04C39.3127 156.572 39.602 157.258 39.602 158.098ZM36.228 159.876C36.9373 159.876 37.46 159.722 37.796 159.414C38.132 159.106 38.3 158.667 38.3 158.098C38.3 156.894 37.6093 156.292 36.228 156.292H34.352V159.876H36.228ZM44.9934 157.188C45.5721 157.188 46.0948 157.314 46.5614 157.566C47.0281 157.809 47.3921 158.177 47.6534 158.672C47.9241 159.167 48.0594 159.769 48.0594 160.478V165H46.7994V160.66C46.7994 159.895 46.6081 159.311 46.2254 158.91C45.8428 158.499 45.3201 158.294 44.6574 158.294C43.9854 158.294 43.4488 158.504 43.0474 158.924C42.6554 159.344 42.4594 159.955 42.4594 160.758V165H41.1854V154.64H42.4594V158.42C42.7114 158.028 43.0568 157.725 43.4954 157.51C43.9434 157.295 44.4428 157.188 44.9934 157.188ZM53.4865 165.126C52.7678 165.126 52.1145 164.963 51.5265 164.636C50.9478 164.309 50.4905 163.847 50.1545 163.25C49.8278 162.643 49.6645 161.943 49.6645 161.15C49.6645 160.366 49.8325 159.675 50.1685 159.078C50.5138 158.471 50.9805 158.009 51.5685 157.692C52.1565 157.365 52.8145 157.202 53.5425 157.202C54.2705 157.202 54.9285 157.365 55.5165 157.692C56.1045 158.009 56.5665 158.467 56.9025 159.064C57.2478 159.661 57.4205 160.357 57.4205 161.15C57.4205 161.943 57.2432 162.643 56.8885 163.25C56.5432 163.847 56.0718 164.309 55.4745 164.636C54.8772 164.963 54.2145 165.126 53.4865 165.126ZM53.4865 164.006C53.9438 164.006 54.3732 163.899 54.7745 163.684C55.1758 163.469 55.4978 163.147 55.7405 162.718C55.9925 162.289 56.1185 161.766 56.1185 161.15C56.1185 160.534 55.9972 160.011 55.7545 159.582C55.5118 159.153 55.1945 158.835 54.8025 158.63C54.4105 158.415 53.9858 158.308 53.5285 158.308C53.0618 158.308 52.6325 158.415 52.2405 158.63C51.8578 158.835 51.5498 159.153 51.3165 159.582C51.0832 160.011 50.9665 160.534 50.9665 161.15C50.9665 161.775 51.0785 162.303 51.3025 162.732C51.5358 163.161 51.8438 163.483 52.2265 163.698C52.6092 163.903 53.0292 164.006 53.4865 164.006ZM62.8336 157.188C63.7669 157.188 64.5229 157.473 65.1016 158.042C65.6802 158.602 65.9696 159.414 65.9696 160.478V165H64.7096V160.66C64.7096 159.895 64.5182 159.311 64.1356 158.91C63.7529 158.499 63.2302 158.294 62.5676 158.294C61.8956 158.294 61.3589 158.504 60.9576 158.924C60.5656 159.344 60.3696 159.955 60.3696 160.758V165H59.0956V157.328H60.3696V158.42C60.6216 158.028 60.9622 157.725 61.3916 157.51C61.8302 157.295 62.3109 157.188 62.8336 157.188ZM75.0507 160.87C75.0507 161.113 75.0367 161.369 75.0087 161.64H68.8767C68.9233 162.396 69.18 162.989 69.6467 163.418C70.1227 163.838 70.6967 164.048 71.3687 164.048C71.9193 164.048 72.3767 163.922 72.7407 163.67C73.114 163.409 73.3753 163.063 73.5247 162.634H74.8967C74.6913 163.371 74.2807 163.973 73.6647 164.44C73.0487 164.897 72.2833 165.126 71.3687 165.126C70.6407 165.126 69.9873 164.963 69.4087 164.636C68.8393 164.309 68.3913 163.847 68.0647 163.25C67.738 162.643 67.5747 161.943 67.5747 161.15C67.5747 160.357 67.7333 159.661 68.0507 159.064C68.368 158.467 68.8113 158.009 69.3807 157.692C69.9593 157.365 70.622 157.202 71.3687 157.202C72.0967 157.202 72.7407 157.361 73.3007 157.678C73.8607 157.995 74.29 158.434 74.5887 158.994C74.8967 159.545 75.0507 160.17 75.0507 160.87ZM73.7347 160.604C73.7347 160.119 73.6273 159.703 73.4127 159.358C73.198 159.003 72.904 158.737 72.5307 158.56C72.1667 158.373 71.7607 158.28 71.3127 158.28C70.6687 158.28 70.118 158.485 69.6607 158.896C69.2127 159.307 68.956 159.876 68.8907 160.604H73.7347ZM79.9887 161.136C79.9887 160.352 80.1474 159.666 80.4647 159.078C80.7821 158.481 81.2161 158.019 81.7667 157.692C82.3267 157.365 82.9474 157.202 83.6287 157.202C84.3007 157.202 84.8841 157.347 85.3787 157.636C85.8734 157.925 86.2421 158.289 86.4847 158.728V157.328H87.7727V165H86.4847V163.572C86.2327 164.02 85.8547 164.393 85.3507 164.692C84.8561 164.981 84.2774 165.126 83.6147 165.126C82.9334 165.126 82.3174 164.958 81.7667 164.622C81.2161 164.286 80.7821 163.815 80.4647 163.208C80.1474 162.601 79.9887 161.911 79.9887 161.136ZM86.4847 161.15C86.4847 160.571 86.3681 160.067 86.1347 159.638C85.9014 159.209 85.5841 158.882 85.1827 158.658C84.7907 158.425 84.3567 158.308 83.8807 158.308C83.4047 158.308 82.9707 158.42 82.5787 158.644C82.1867 158.868 81.8741 159.195 81.6407 159.624C81.4074 160.053 81.2907 160.557 81.2907 161.136C81.2907 161.724 81.4074 162.237 81.6407 162.676C81.8741 163.105 82.1867 163.437 82.5787 163.67C82.9707 163.894 83.4047 164.006 83.8807 164.006C84.3567 164.006 84.7907 163.894 85.1827 163.67C85.5841 163.437 85.9014 163.105 86.1347 162.676C86.3681 162.237 86.4847 161.729 86.4847 161.15ZM93.6637 157.188C94.597 157.188 95.353 157.473 95.9317 158.042C96.5103 158.602 96.7997 159.414 96.7997 160.478V165H95.5397V160.66C95.5397 159.895 95.3483 159.311 94.9657 158.91C94.583 158.499 94.0603 158.294 93.3977 158.294C92.7257 158.294 92.189 158.504 91.7877 158.924C91.3957 159.344 91.1997 159.955 91.1997 160.758V165H89.9257V157.328H91.1997V158.42C91.4517 158.028 91.7923 157.725 92.2217 157.51C92.6603 157.295 93.141 157.188 93.6637 157.188ZM98.4047 161.136C98.4047 160.352 98.5634 159.666 98.8807 159.078C99.1981 158.481 99.6321 158.019 100.183 157.692C100.743 157.365 101.368 157.202 102.059 157.202C102.656 157.202 103.211 157.342 103.725 157.622C104.238 157.893 104.63 158.252 104.901 158.7V154.64H106.189V165H104.901V163.558C104.649 164.015 104.275 164.393 103.781 164.692C103.286 164.981 102.707 165.126 102.045 165.126C101.363 165.126 100.743 164.958 100.183 164.622C99.6321 164.286 99.1981 163.815 98.8807 163.208C98.5634 162.601 98.4047 161.911 98.4047 161.136ZM104.901 161.15C104.901 160.571 104.784 160.067 104.551 159.638C104.317 159.209 104 158.882 103.599 158.658C103.207 158.425 102.773 158.308 102.297 158.308C101.821 158.308 101.387 158.42 100.995 158.644C100.603 158.868 100.29 159.195 100.057 159.624C99.8234 160.053 99.7067 160.557 99.7067 161.136C99.7067 161.724 99.8234 162.237 100.057 162.676C100.29 163.105 100.603 163.437 100.995 163.67C101.387 163.894 101.821 164.006 102.297 164.006C102.773 164.006 103.207 163.894 103.599 163.67C104 163.437 104.317 163.105 104.551 162.676C104.784 162.237 104.901 161.729 104.901 161.15ZM113.348 156.278V159.54H116.904V160.59H113.348V163.95H117.324V165H112.074V155.228H117.324V156.278H113.348ZM128.478 157.188C129.075 157.188 129.607 157.314 130.074 157.566C130.54 157.809 130.909 158.177 131.18 158.672C131.45 159.167 131.586 159.769 131.586 160.478V165H130.326V160.66C130.326 159.895 130.134 159.311 129.752 158.91C129.378 158.499 128.87 158.294 128.226 158.294C127.563 158.294 127.036 158.509 126.644 158.938C126.252 159.358 126.056 159.969 126.056 160.772V165H124.796V160.66C124.796 159.895 124.604 159.311 124.222 158.91C123.848 158.499 123.34 158.294 122.696 158.294C122.033 158.294 121.506 158.509 121.114 158.938C120.722 159.358 120.526 159.969 120.526 160.772V165H119.252V157.328H120.526V158.434C120.778 158.033 121.114 157.725 121.534 157.51C121.963 157.295 122.434 157.188 122.948 157.188C123.592 157.188 124.161 157.333 124.656 157.622C125.15 157.911 125.519 158.336 125.762 158.896C125.976 158.355 126.331 157.935 126.826 157.636C127.32 157.337 127.871 157.188 128.478 157.188ZM133.2 161.136C133.2 160.352 133.358 159.666 133.676 159.078C133.993 158.481 134.427 158.019 134.978 157.692C135.538 157.365 136.158 157.202 136.84 157.202C137.512 157.202 138.095 157.347 138.59 157.636C139.084 157.925 139.453 158.289 139.696 158.728V157.328H140.984V165H139.696V163.572C139.444 164.02 139.066 164.393 138.562 164.692C138.067 164.981 137.488 165.126 136.826 165.126C136.144 165.126 135.528 164.958 134.978 164.622C134.427 164.286 133.993 163.815 133.676 163.208C133.358 162.601 133.2 161.911 133.2 161.136ZM139.696 161.15C139.696 160.571 139.579 160.067 139.346 159.638C139.112 159.209 138.795 158.882 138.394 158.658C138.002 158.425 137.568 158.308 137.092 158.308C136.616 158.308 136.182 158.42 135.79 158.644C135.398 158.868 135.085 159.195 134.852 159.624C134.618 160.053 134.502 160.557 134.502 161.136C134.502 161.724 134.618 162.237 134.852 162.676C135.085 163.105 135.398 163.437 135.79 163.67C136.182 163.894 136.616 164.006 137.092 164.006C137.568 164.006 138.002 163.894 138.394 163.67C138.795 163.437 139.112 163.105 139.346 162.676C139.579 162.237 139.696 161.729 139.696 161.15ZM143.795 156.082C143.552 156.082 143.347 155.998 143.179 155.83C143.011 155.662 142.927 155.457 142.927 155.214C142.927 154.971 143.011 154.766 143.179 154.598C143.347 154.43 143.552 154.346 143.795 154.346C144.028 154.346 144.224 154.43 144.383 154.598C144.551 154.766 144.635 154.971 144.635 155.214C144.635 155.457 144.551 155.662 144.383 155.83C144.224 155.998 144.028 156.082 143.795 156.082ZM144.411 157.328V165H143.137V157.328H144.411ZM147.856 154.64V165H146.582V154.64H147.856ZM156.476 165.126C155.888 165.126 155.36 165.028 154.894 164.832C154.427 164.627 154.058 164.347 153.788 163.992C153.517 163.628 153.368 163.213 153.34 162.746H154.656C154.693 163.129 154.87 163.441 155.188 163.684C155.514 163.927 155.939 164.048 156.462 164.048C156.947 164.048 157.33 163.941 157.61 163.726C157.89 163.511 158.03 163.241 158.03 162.914C158.03 162.578 157.88 162.331 157.582 162.172C157.283 162.004 156.821 161.841 156.196 161.682C155.626 161.533 155.16 161.383 154.796 161.234C154.441 161.075 154.133 160.847 153.872 160.548C153.62 160.24 153.494 159.839 153.494 159.344C153.494 158.952 153.61 158.593 153.844 158.266C154.077 157.939 154.408 157.683 154.838 157.496C155.267 157.3 155.757 157.202 156.308 157.202C157.157 157.202 157.843 157.417 158.366 157.846C158.888 158.275 159.168 158.863 159.206 159.61H157.932C157.904 159.209 157.74 158.887 157.442 158.644C157.152 158.401 156.76 158.28 156.266 158.28C155.808 158.28 155.444 158.378 155.174 158.574C154.903 158.77 154.768 159.027 154.768 159.344C154.768 159.596 154.847 159.806 155.006 159.974C155.174 160.133 155.379 160.263 155.622 160.366C155.874 160.459 156.219 160.567 156.658 160.688C157.208 160.837 157.656 160.987 158.002 161.136C158.347 161.276 158.641 161.491 158.884 161.78C159.136 162.069 159.266 162.447 159.276 162.914C159.276 163.334 159.159 163.712 158.926 164.048C158.692 164.384 158.361 164.65 157.932 164.846C157.512 165.033 157.026 165.126 156.476 165.126ZM167.878 157.328V165H166.604V163.866C166.361 164.258 166.021 164.566 165.582 164.79C165.153 165.005 164.677 165.112 164.154 165.112C163.557 165.112 163.02 164.991 162.544 164.748C162.068 164.496 161.69 164.123 161.41 163.628C161.139 163.133 161.004 162.531 161.004 161.822V157.328H162.264V161.654C162.264 162.41 162.455 162.993 162.838 163.404C163.221 163.805 163.743 164.006 164.406 164.006C165.087 164.006 165.624 163.796 166.016 163.376C166.408 162.956 166.604 162.345 166.604 161.542V157.328H167.878ZM171.303 158.742C171.555 158.303 171.929 157.939 172.423 157.65C172.927 157.351 173.511 157.202 174.173 157.202C174.855 157.202 175.471 157.365 176.021 157.692C176.581 158.019 177.02 158.481 177.337 159.078C177.655 159.666 177.813 160.352 177.813 161.136C177.813 161.911 177.655 162.601 177.337 163.208C177.02 163.815 176.581 164.286 176.021 164.622C175.471 164.958 174.855 165.126 174.173 165.126C173.52 165.126 172.941 164.981 172.437 164.692C171.943 164.393 171.565 164.025 171.303 163.586V168.64H170.029V157.328H171.303V158.742ZM176.511 161.136C176.511 160.557 176.395 160.053 176.161 159.624C175.928 159.195 175.611 158.868 175.209 158.644C174.817 158.42 174.383 158.308 173.907 158.308C173.441 158.308 173.007 158.425 172.605 158.658C172.213 158.882 171.896 159.213 171.653 159.652C171.42 160.081 171.303 160.581 171.303 161.15C171.303 161.729 171.42 162.237 171.653 162.676C171.896 163.105 172.213 163.437 172.605 163.67C173.007 163.894 173.441 164.006 173.907 164.006C174.383 164.006 174.817 163.894 175.209 163.67C175.611 163.437 175.928 163.105 176.161 162.676C176.395 162.237 176.511 161.724 176.511 161.136ZM180.764 158.742C181.016 158.303 181.389 157.939 181.884 157.65C182.388 157.351 182.971 157.202 183.634 157.202C184.315 157.202 184.931 157.365 185.482 157.692C186.042 158.019 186.481 158.481 186.798 159.078C187.115 159.666 187.274 160.352 187.274 161.136C187.274 161.911 187.115 162.601 186.798 163.208C186.481 163.815 186.042 164.286 185.482 164.622C184.931 164.958 184.315 165.126 183.634 165.126C182.981 165.126 182.402 164.981 181.898 164.692C181.403 164.393 181.025 164.025 180.764 163.586V168.64H179.49V157.328H180.764V158.742ZM185.972 161.136C185.972 160.557 185.855 160.053 185.622 159.624C185.389 159.195 185.071 158.868 184.67 158.644C184.278 158.42 183.844 158.308 183.368 158.308C182.901 158.308 182.467 158.425 182.066 158.658C181.674 158.882 181.357 159.213 181.114 159.652C180.881 160.081 180.764 160.581 180.764 161.15C180.764 161.729 180.881 162.237 181.114 162.676C181.357 163.105 181.674 163.437 182.066 163.67C182.467 163.894 182.901 164.006 183.368 164.006C183.844 164.006 184.278 163.894 184.67 163.67C185.071 163.437 185.389 163.105 185.622 162.676C185.855 162.237 185.972 161.724 185.972 161.136ZM192.297 165.126C191.578 165.126 190.925 164.963 190.337 164.636C189.758 164.309 189.301 163.847 188.965 163.25C188.638 162.643 188.475 161.943 188.475 161.15C188.475 160.366 188.643 159.675 188.979 159.078C189.324 158.471 189.791 158.009 190.379 157.692C190.967 157.365 191.625 157.202 192.353 157.202C193.081 157.202 193.739 157.365 194.327 157.692C194.915 158.009 195.377 158.467 195.713 159.064C196.058 159.661 196.231 160.357 196.231 161.15C196.231 161.943 196.054 162.643 195.699 163.25C195.354 163.847 194.882 164.309 194.285 164.636C193.688 164.963 193.025 165.126 192.297 165.126ZM192.297 164.006C192.754 164.006 193.184 163.899 193.585 163.684C193.986 163.469 194.308 163.147 194.551 162.718C194.803 162.289 194.929 161.766 194.929 161.15C194.929 160.534 194.808 160.011 194.565 159.582C194.322 159.153 194.005 158.835 193.613 158.63C193.221 158.415 192.796 158.308 192.339 158.308C191.872 158.308 191.443 158.415 191.051 158.63C190.668 158.835 190.36 159.153 190.127 159.582C189.894 160.011 189.777 160.534 189.777 161.15C189.777 161.775 189.889 162.303 190.113 162.732C190.346 163.161 190.654 163.483 191.037 163.698C191.42 163.903 191.84 164.006 192.297 164.006ZM199.18 158.574C199.404 158.135 199.721 157.795 200.132 157.552C200.552 157.309 201.061 157.188 201.658 157.188V158.504H201.322C199.894 158.504 199.18 159.279 199.18 160.828V165H197.906V157.328H199.18V158.574ZM204.683 158.378V162.9C204.683 163.273 204.762 163.539 204.921 163.698C205.079 163.847 205.355 163.922 205.747 163.922H206.685V165H205.537C204.827 165 204.295 164.837 203.941 164.51C203.586 164.183 203.409 163.647 203.409 162.9V158.378H202.415V157.328H203.409V155.396H204.683V157.328H206.685V158.378H204.683Z" fill="#191919"/>
</svg>
