<svg width="122" height="48" viewBox="0 0 122 48" fill="none" xmlns="http://www.w3.org/2000/svg">
<path d="M0 0H122V48H0V0Z" fill="white"/>
<path fill-rule="evenodd" clip-rule="evenodd" d="M122 0H0V48H122V0ZM29.0453 17.1995C29.6699 17.6228 30.0252 18.2198 30.1113 18.9905H32.518C32.4964 18.095 32.238 17.3026 31.7427 16.6133C31.2474 15.9186 30.569 15.3731 29.7076 14.9769C28.8515 14.5807 27.8636 14.3826 26.7437 14.3826C25.6346 14.3826 24.6386 14.5834 23.7556 14.9851C22.8726 15.3813 22.1727 15.9376 21.6559 16.654C21.139 17.3704 20.8806 18.209 20.8806 19.1696C20.8806 20.3311 21.2655 21.2646 22.0354 21.9701C22.8107 22.6757 23.8606 23.2103 25.185 23.5739L27.1394 24.1113C27.7316 24.2687 28.262 24.4505 28.7304 24.6567C29.2042 24.863 29.5783 25.1235 29.8529 25.4383C30.1329 25.7531 30.2729 26.1574 30.2729 26.6513C30.2729 27.194 30.114 27.6689 29.7964 28.076C29.4787 28.4776 29.0426 28.7924 28.4881 29.0204C27.9389 29.2429 27.3117 29.3541 26.6064 29.3541C25.9657 29.3541 25.3762 29.2592 24.8378 29.0692C24.3048 28.8738 23.866 28.578 23.5214 28.1818C23.1822 27.7802 22.9884 27.2782 22.9399 26.6757H20.4364C20.4903 27.6798 20.7729 28.5482 21.2844 29.2809C21.7959 30.0081 22.5038 30.5699 23.4083 30.9661C24.3128 31.3623 25.3843 31.5604 26.6226 31.5604C27.9147 31.5604 29.0157 31.3487 29.9256 30.9254C30.8409 30.502 31.5381 29.924 32.0173 29.1913C32.5018 28.4586 32.7441 27.6201 32.7441 26.6757C32.7441 25.9267 32.596 25.2836 32.2999 24.7463C32.0092 24.209 31.6269 23.7585 31.1531 23.3948C30.6794 23.0312 30.1652 22.7381 29.6106 22.5156C29.0561 22.2931 28.515 22.1167 27.9874 21.9864L26.3722 21.5631C26.0492 21.4817 25.7127 21.3786 25.3627 21.2537C25.0128 21.1235 24.6843 20.9634 24.3775 20.7734C24.076 20.578 23.831 20.3365 23.6425 20.0488C23.4595 19.7612 23.368 19.4193 23.368 19.0231C23.368 18.5509 23.5026 18.1303 23.7718 17.7612C24.0463 17.3867 24.4313 17.0936 24.9266 16.882C25.4219 16.6649 26.0088 16.5563 26.6872 16.5563C27.6347 16.5563 28.4208 16.7707 29.0453 17.1995ZM34.3774 14.6106L38.9646 31.2836H41.4842L44.965 18.7951H45.0942L48.5749 31.2836H51.0865L55.6817 14.6106H53.0489L49.8347 27.5305H49.6813L46.3298 14.6106H43.7293L40.3778 27.5224H40.2244L37.0021 14.6106H34.3774ZM60.4525 31.2836V14.6106H57.9571V31.2836H60.4525ZM64.0867 14.6106V31.2836H66.5821V24.0136H73.6082V21.8562H66.5821V16.7761H74.3431V14.6106H64.0867ZM76.5963 14.6106V16.7761H81.7487V31.2836H81.965V31.5222L112.05 31.5222V29.3729H84.2361V16.7761H89.3966V14.6106H76.5963ZM103.285 35.8207L19.899 35.8207V33.6714L103.285 33.6714V35.8207Z" fill="#EC8D00"/>
</svg>
